<svg width="1440" height="883" viewBox="0 0 1440 883" fill="none" xmlns="http://www.w3.org/2000/svg">
<path opacity="0.3" d="M430.137 347.486C197.506 326.513 45.066 615.612 -161.355 569.553C-326.493 532.705 -443.412 359.922 -481.23 278.137" stroke="white" stroke-width="2"/>
<path opacity="0.3" d="M453.969 335C671.79 419.328 680.272 746.046 885.72 796.268C1050.08 836.447 1301.63 676.856 1301.63 676.856C1385.46 618.539 1428.42 573.96 1439.42 558.96" stroke="white" stroke-width="2"/>
<path opacity="0.3" d="M447.39 336.753C670.449 406.048 701.166 731.429 909.558 767.541C1076.27 796.43 1316.37 620.076 1316.37 620.076C1396.03 556.184 1435.85 508.783 1445.8 493.068" stroke="white" stroke-width="2"/>
<path opacity="0.3" d="M444.236 338.151C214.814 294.305 34.5669 566.936 -166.296 500.716C-326.987 447.739 -426.271 264.254 -455.826 179.134" stroke="white" stroke-width="2"/>
</svg>
