<svg width="95" height="272" viewBox="0 0 95 272" fill="none" xmlns="http://www.w3.org/2000/svg">
<g opacity="0.4">
<path d="M89.9269 2.63644C89.9269 3.89035 90.9441 4.90686 92.1988 4.90686C93.4535 4.90686 94.4707 3.89035 94.4707 2.63644C94.4707 1.38254 93.4535 0.366028 92.1988 0.366028C90.9441 0.366028 89.9269 1.38254 89.9269 2.63644Z" fill="white"/>
<path d="M89.9269 35.9208C89.9269 37.1747 90.9441 38.1911 92.1988 38.1911C93.4535 38.1911 94.4707 37.1747 94.4707 35.9208C94.4707 34.6669 93.4535 33.6504 92.1988 33.6504C90.9441 33.6504 89.9269 34.6669 89.9269 35.9208Z" fill="#FCB35E"/>
<path d="M89.9269 69.3941C89.9269 70.648 90.9441 71.6644 92.1988 71.6644C93.4535 71.6644 94.4707 70.648 94.4707 69.3941C94.4707 68.1403 93.4535 67.1239 92.1988 67.1239C90.9441 67.1239 89.9269 68.1403 89.9269 69.3941Z" fill="#FCB35E"/>
<path d="M89.9269 102.678C89.9269 103.932 90.9441 104.949 92.1988 104.949C93.4535 104.949 94.4707 103.932 94.4707 102.678C94.4707 101.424 93.4535 100.408 92.1988 100.408C90.9441 100.408 89.9269 101.424 89.9269 102.678Z" fill="white"/>
<path d="M89.9269 136.152C89.9269 137.406 90.9441 138.422 92.1988 138.422C93.4535 138.422 94.4707 137.406 94.4707 136.152C94.4707 134.898 93.4535 133.881 92.1988 133.881C90.9441 133.881 89.9269 134.898 89.9269 136.152Z" fill="#FCB35E"/>
<path d="M89.9269 169.625C89.9269 170.878 90.9441 171.894 92.1988 171.894C93.4535 171.894 94.4707 170.878 94.4707 169.625C94.4707 168.371 93.4535 167.355 92.1988 167.355C90.9441 167.355 89.9269 168.371 89.9269 169.625Z" fill="#FCB35E"/>
<path d="M92.1988 205.179C90.8736 205.179 89.9269 204.233 89.9269 202.909C89.9269 201.585 90.8736 200.639 92.1988 200.639C93.5241 200.639 94.4707 201.585 94.4707 202.909C94.4707 204.233 93.5241 205.179 92.1988 205.179Z" fill="#FCB35E"/>
<path d="M89.9269 236.383C89.9269 237.637 90.9441 238.653 92.1988 238.653C93.4535 238.653 94.4707 237.637 94.4707 236.383C94.4707 235.129 93.4535 234.113 92.1988 234.113C90.9441 234.113 89.9269 235.129 89.9269 236.383Z" fill="#FCB35E"/>
<path d="M89.9269 269.667C89.9269 270.921 90.9441 271.937 92.1988 271.937C93.4535 271.937 94.4707 270.921 94.4707 269.667C94.4707 268.413 93.4535 267.397 92.1988 267.397C90.9441 267.397 89.9269 268.413 89.9269 269.667Z" fill="#FCB35E"/>
<path d="M67.3977 2.63644C67.3977 3.89035 68.4149 4.90686 69.6696 4.90686C70.9243 4.90686 71.9414 3.89035 71.9414 2.63644C71.9414 1.38254 70.9243 0.366028 69.6696 0.366028C68.4149 0.366028 67.3977 1.38254 67.3977 2.63644Z" fill="#FCB35E"/>
<path d="M67.3977 35.9208C67.3977 37.1747 68.4149 38.1911 69.6696 38.1911C70.9243 38.1911 71.9414 37.1747 71.9414 35.9208C71.9414 34.6669 70.9243 33.6504 69.6696 33.6504C68.4149 33.6504 67.3977 34.6669 67.3977 35.9208Z" fill="#FCB35E"/>
<path d="M67.3977 69.3941C67.3977 70.648 68.4149 71.6644 69.6696 71.6644C70.9243 71.6644 71.9414 70.648 71.9414 69.3941C71.9414 68.1403 70.9243 67.1239 69.6696 67.1239C68.4149 67.1239 67.3977 68.1403 67.3977 69.3941Z" fill="#FCB35E"/>
<path d="M67.3977 102.678C67.3977 103.932 68.4149 104.949 69.6696 104.949C70.9243 104.949 71.9414 103.932 71.9414 102.678C71.9414 101.424 70.9243 100.408 69.6696 100.408C68.4149 100.408 67.3977 101.424 67.3977 102.678Z" fill="#FCB35E"/>
<path d="M67.3977 136.152C67.3977 137.406 68.4149 138.422 69.6696 138.422C70.9243 138.422 71.9414 137.406 71.9414 136.152C71.9414 134.898 70.9243 133.881 69.6696 133.881C68.4149 133.881 67.3977 134.898 67.3977 136.152Z" fill="#FCB35E"/>
<path d="M67.3977 169.625C67.3977 170.878 68.4149 171.894 69.6696 171.894C70.9243 171.894 71.9414 170.878 71.9414 169.625C71.9414 168.371 70.9243 167.355 69.6696 167.355C68.4149 167.355 67.3977 168.371 67.3977 169.625Z" fill="white"/>
<path d="M69.6696 205.179C68.3443 205.179 67.3977 204.233 67.3977 202.909C67.3977 201.585 68.3443 200.639 69.6696 200.639C70.9948 200.639 71.9414 201.585 71.9414 202.909C71.9414 204.233 70.9948 205.179 69.6696 205.179Z" fill="#FCB35E"/>
<path d="M67.3977 236.383C67.3977 237.637 68.4149 238.653 69.6696 238.653C70.9243 238.653 71.9414 237.637 71.9414 236.383C71.9414 235.129 70.9243 234.113 69.6696 234.113C68.4149 234.113 67.3977 235.129 67.3977 236.383Z" fill="#FCB35E"/>
<path d="M67.3977 269.667C67.3977 270.921 68.4149 271.937 69.6696 271.937C70.9243 271.937 71.9414 270.921 71.9414 269.667C71.9414 268.413 70.9243 267.397 69.6696 267.397C68.4149 267.397 67.3977 268.413 67.3977 269.667Z" fill="white"/>
<path d="M45.0579 2.63644C45.0579 3.89035 46.075 4.90686 47.3297 4.90686C48.5844 4.90686 49.6016 3.89035 49.6016 2.63644C49.6016 1.38254 48.5844 0.366028 47.3297 0.366028C46.075 0.366028 45.0579 1.38254 45.0579 2.63644Z" fill="#FCB35E"/>
<path d="M45.0579 35.9208C45.0579 37.1747 46.075 38.1911 47.3297 38.1911C48.5844 38.1911 49.6016 37.1747 49.6016 35.9208C49.6016 34.6669 48.5844 33.6504 47.3297 33.6504C46.075 33.6504 45.0579 34.6669 45.0579 35.9208Z" fill="white"/>
<path d="M45.0579 69.3941C45.0579 70.648 46.075 71.6644 47.3297 71.6644C48.5844 71.6644 49.6016 70.648 49.6016 69.3941C49.6016 68.1403 48.5844 67.1239 47.3297 67.1239C46.075 67.1239 45.0579 68.1403 45.0579 69.3941Z" fill="#FCB35E"/>
<path d="M45.0579 102.678C45.0579 103.932 46.075 104.949 47.3297 104.949C48.5844 104.949 49.6016 103.932 49.6016 102.678C49.6016 101.424 48.5844 100.408 47.3297 100.408C46.075 100.408 45.0579 101.424 45.0579 102.678Z" fill="#FCB35E"/>
<path d="M45.0579 136.152C45.0579 137.406 46.075 138.422 47.3297 138.422C48.5844 138.422 49.6016 137.406 49.6016 136.152C49.6016 134.898 48.5844 133.881 47.3297 133.881C46.075 133.881 45.0579 134.898 45.0579 136.152Z" fill="#FCB35E"/>
<path d="M45.0579 169.625C45.0579 170.878 46.075 171.894 47.3297 171.894C48.5844 171.894 49.6016 170.878 49.6016 169.625C49.6016 168.371 48.5844 167.355 47.3297 167.355C46.075 167.355 45.0579 168.371 45.0579 169.625Z" fill="#FCB35E"/>
<path d="M47.3297 205.179C46.0044 205.179 45.0579 204.233 45.0579 202.909C45.0579 201.585 46.0044 200.639 47.3297 200.639C48.6549 200.639 49.6016 201.585 49.6016 202.909C49.6016 204.233 48.4656 205.179 47.3297 205.179Z" fill="white"/>
<path d="M45.0579 236.383C45.0579 237.637 46.075 238.653 47.3297 238.653C48.5844 238.653 49.6016 237.637 49.6016 236.383C49.6016 235.129 48.5844 234.113 47.3297 234.113C46.075 234.113 45.0579 235.129 45.0579 236.383Z" fill="#FCB35E"/>
<path d="M45.0579 269.667C45.0579 270.921 46.075 271.937 47.3297 271.937C48.5844 271.937 49.6016 270.921 49.6016 269.667C49.6016 268.413 48.5844 267.397 47.3297 267.397C46.075 267.397 45.0579 268.413 45.0579 269.667Z" fill="#FCB35E"/>
<path d="M22.5286 2.63644C22.5286 3.89035 23.5457 4.90686 24.8004 4.90686C26.0551 4.90686 27.0723 3.89035 27.0723 2.63644C27.0723 1.38254 26.0551 0.366028 24.8004 0.366028C23.5457 0.366028 22.5286 1.38254 22.5286 2.63644Z" fill="#FCB35E"/>
<path d="M22.5286 35.9208C22.5286 37.1747 23.5457 38.1911 24.8004 38.1911C26.0551 38.1911 27.0723 37.1747 27.0723 35.9208C27.0723 34.6669 26.0551 33.6504 24.8004 33.6504C23.5457 33.6504 22.5286 34.6669 22.5286 35.9208Z" fill="#FCB35E"/>
<path d="M22.5286 69.3941C22.5286 70.648 23.5457 71.6644 24.8004 71.6644C26.0551 71.6644 27.0723 70.648 27.0723 69.3941C27.0723 68.1403 26.0551 67.1239 24.8004 67.1239C23.5457 67.1239 22.5286 68.1403 22.5286 69.3941Z" fill="white"/>
<path d="M22.5286 102.678C22.5286 103.932 23.5457 104.949 24.8004 104.949C26.0551 104.949 27.0723 103.932 27.0723 102.678C27.0723 101.424 26.0551 100.408 24.8004 100.408C23.5457 100.408 22.5286 101.424 22.5286 102.678Z" fill="#FCB35E"/>
<path d="M22.5286 136.152C22.5286 137.406 23.5457 138.422 24.8004 138.422C26.0551 138.422 27.0723 137.406 27.0723 136.152C27.0723 134.898 26.0551 133.881 24.8004 133.881C23.5457 133.881 22.5286 134.898 22.5286 136.152Z" fill="white"/>
<path d="M22.5286 169.625C22.5286 170.878 23.5457 171.894 24.8004 171.894C26.0551 171.894 27.0723 170.878 27.0723 169.625C27.0723 168.371 26.0551 167.355 24.8004 167.355C23.5457 167.355 22.5286 168.371 22.5286 169.625Z" fill="#FCB35E"/>
<path d="M24.8004 205.179C23.4751 205.179 22.5286 204.233 22.5286 202.909C22.5286 201.585 23.4751 200.639 24.8004 200.639C26.1256 200.639 27.0723 201.585 27.0723 202.909C27.0723 204.233 26.1256 205.179 24.8004 205.179Z" fill="#FCB35E"/>
<path d="M22.5286 236.383C22.5286 237.637 23.5457 238.653 24.8004 238.653C26.0551 238.653 27.0723 237.637 27.0723 236.383C27.0723 235.129 26.0551 234.113 24.8004 234.113C23.5457 234.113 22.5286 235.129 22.5286 236.383Z" fill="#FCB35E"/>
<path d="M22.5286 269.667C22.5286 270.921 23.5457 271.937 24.8004 271.937C26.0551 271.937 27.0723 270.921 27.0723 269.667C27.0723 268.413 26.0551 267.397 24.8004 267.397C23.5457 267.397 22.5286 268.413 22.5286 269.667Z" fill="#FCB35E"/>
<path d="M0.000183006 2.63644C0.000182951 3.89035 1.01735 4.90686 2.27206 4.90686C3.52678 4.90686 4.54395 3.89035 4.54395 2.63644C4.54395 1.38254 3.52678 0.366028 2.27206 0.366028C1.01735 0.366028 0.000183061 1.38254 0.000183006 2.63644Z" fill="#FCB35E"/>
<path d="M0.000183006 35.9208C0.000182951 37.1747 1.01735 38.1911 2.27206 38.1911C3.52678 38.1911 4.54395 37.1747 4.54395 35.9208C4.54395 34.6669 3.52678 33.6504 2.27206 33.6504C1.01735 33.6504 0.000183061 34.6669 0.000183006 35.9208Z" fill="#FCB35E"/>
<path d="M0.000183006 69.3941C0.000182951 70.648 1.01735 71.6644 2.27206 71.6644C3.52678 71.6644 4.54395 70.648 4.54395 69.3941C4.54395 68.1403 3.52678 67.1239 2.27206 67.1239C1.01735 67.1239 0.000183061 68.1403 0.000183006 69.3941Z" fill="#FCB35E"/>
<path d="M0.000183006 102.678C0.000182951 103.932 1.01735 104.949 2.27206 104.949C3.52678 104.949 4.54395 103.932 4.54395 102.678C4.54395 101.424 3.52678 100.408 2.27206 100.408C1.01735 100.408 0.000183061 101.424 0.000183006 102.678Z" fill="#FCB35E"/>
<path d="M0.000183006 136.152C0.000182951 137.406 1.01735 138.422 2.27206 138.422C3.52678 138.422 4.54395 137.406 4.54395 136.152C4.54395 134.898 3.52678 133.881 2.27206 133.881C1.01735 133.881 0.000183061 134.898 0.000183006 136.152Z" fill="#FCB35E"/>
<path d="M0.000183006 169.625C0.000182951 170.878 1.01735 171.894 2.27206 171.894C3.52678 171.894 4.54395 170.878 4.54395 169.625C4.54395 168.371 3.52678 167.355 2.27206 167.355C1.01735 167.355 0.000183061 168.371 0.000183006 169.625Z" fill="#FCB35E"/>
<path d="M2.27206 205.179C0.946814 205.179 0.000182948 204.233 0.000183006 202.909C0.000183064 201.585 0.946814 200.639 2.27206 200.639C3.59731 200.639 4.54395 201.585 4.54395 202.909C4.54395 204.233 3.59731 205.179 2.27206 205.179Z" fill="#FCB35E"/>
<path d="M0.000183006 236.383C0.000182951 237.637 1.01735 238.653 2.27206 238.653C3.52678 238.653 4.54395 237.637 4.54395 236.383C4.54395 235.129 3.52678 234.113 2.27206 234.113C1.01735 234.113 0.000183061 235.129 0.000183006 236.383Z" fill="white"/>
<path d="M0.000183006 269.667C0.000182951 270.921 1.01735 271.937 2.27206 271.937C3.52678 271.937 4.54395 270.921 4.54395 269.667C4.54395 268.413 3.52678 267.397 2.27206 267.397C1.01735 267.397 0.000183061 268.413 0.000183006 269.667Z" fill="white"/>
</g>
</svg>
