<?xml version="1.0" standalone="no"?>
<!DOCTYPE svg PUBLIC "-//W3C//DTD SVG 20010904//EN"
 "http://www.w3.org/TR/2001/REC-SVG-20010904/DTD/svg10.dtd">
<svg version="1.0" xmlns="http://www.w3.org/2000/svg"
 width="640.000000pt" height="640.000000pt" viewBox="0 0 640.000000 640.000000"
 preserveAspectRatio="xMidYMid meet">
<metadata>
Created by potrace 1.14, written by Peter Selinger 2001-2017
</metadata>
<g transform="translate(0.000000,640.000000) scale(0.100000,-0.100000)"
fill="#000000" stroke="none">
<path d="M3455 6384 c-110 -45 -294 -103 -326 -104 -20 0 -81 14 -135 30 -172
53 -349 44 -462 -23 -31 -19 -120 -67 -196 -107 -182 -95 -287 -157 -361 -214
-71 -56 -167 -147 -161 -153 10 -10 67 30 97 67 18 22 41 40 51 40 10 0 18 5
18 11 0 25 75 73 142 89 31 8 48 18 51 31 3 10 14 22 24 26 29 12 136 74 155
90 9 8 24 13 32 11 14 -2 13 -8 -8 -38 -44 -65 -85 -230 -57 -230 6 0 11 6 12
13 0 6 2 23 4 37 3 14 7 42 10 64 17 114 154 239 310 281 170 46 369 -13 450
-133 22 -33 23 -38 9 -52 -13 -13 -17 -12 -34 10 -10 14 -27 42 -36 63 -9 20
-21 37 -26 37 -10 0 -2 -31 18 -72 19 -36 18 -58 -7 -123 -24 -65 -44 -75 -25
-12 7 23 11 56 9 72 -6 42 -41 121 -64 141 -26 23 -24 9 6 -50 31 -61 32 -115
4 -173 -28 -58 -43 -46 -34 31 l6 61 -25 -50 c-14 -27 -33 -72 -42 -100 -8
-27 -18 -56 -20 -64 -3 -10 -7 -11 -18 -2 -16 13 -13 46 9 102 34 88 26 174
-22 225 -36 39 -39 22 -9 -45 29 -65 28 -86 -6 -153 -21 -43 -21 -43 -79 -23
-75 27 -116 22 -207 -24 -45 -23 -82 -38 -82 -34 1 5 7 19 15 33 33 57 7 81
-36 34 l-24 -27 23 6 c20 5 22 2 16 -16 -10 -34 -23 -44 -34 -27 -13 21 -12 5
5 -65 8 -33 14 -74 15 -92 0 -44 16 -50 18 -7 2 61 21 112 55 147 26 28 44 36
102 47 90 17 111 15 146 -14 22 -19 25 -25 14 -30 -21 -8 -19 -18 10 -60 14
-20 25 -39 25 -41 0 -9 -145 -4 -160 5 -11 7 0 10 38 10 56 0 68 14 26 30 -81
31 -104 4 -103 -124 0 -60 -4 -102 -11 -111 -6 -8 -9 -18 -6 -23 16 -27 -73
-50 -119 -32 l-30 12 25 11 c82 35 110 50 110 58 0 15 -20 10 -52 -12 l-29
-21 7 60 c4 40 3 62 -5 66 -7 5 -11 -7 -11 -38 0 -35 -5 -48 -19 -56 -28 -15
-41 -12 -34 6 4 12 2 15 -8 12 -8 -3 -13 -13 -13 -22 1 -12 -8 -16 -40 -17
-22 0 -49 -2 -58 -4 -30 -6 -20 3 27 24 55 24 64 46 53 119 -10 65 -22 82 -53
82 -12 0 -53 22 -90 50 -71 52 -113 66 -172 57 -46 -8 -52 -15 -29 -33 27 -19
36 -18 36 5 0 17 4 18 42 9 40 -8 149 -78 177 -112 11 -13 11 -19 1 -31 -21
-25 -80 -17 -159 20 -82 40 -89 41 -70 19 14 -17 89 -54 151 -73 21 -7 41 -17
44 -23 22 -35 -111 -51 -191 -23 l-40 14 33 -28 c17 -15 32 -30 32 -33 0 -3
-17 -17 -38 -32 -45 -31 -87 -33 -211 -11 -47 8 -86 13 -88 11 -2 -2 39 -21
91 -41 102 -41 100 -41 201 0 20 8 20 8 0 -14 -31 -35 -66 -50 -140 -57 -40
-4 -86 -17 -112 -31 -24 -12 -55 -23 -69 -23 -13 0 -24 -5 -24 -11 0 -6 -7 -9
-15 -5 -8 3 -15 1 -15 -4 0 -14 38 -22 70 -15 45 10 36 -8 -16 -34 -28 -14
-57 -21 -75 -19 -18 3 -28 1 -26 -6 2 -6 23 -11 45 -11 23 0 42 -4 42 -10 0
-13 -58 -75 -70 -75 -5 0 -21 11 -36 25 -29 27 -74 31 -82 7 -5 -15 53 -40
112 -48 40 -6 47 -3 85 31 l41 38 108 -6 c105 -6 106 -5 62 9 -53 18 -129 24
-151 13 -8 -4 -21 -4 -29 1 -12 7 -12 11 0 25 18 22 81 53 142 72 36 10 48 18
44 29 -4 10 4 18 22 25 48 17 66 29 122 80 51 46 94 69 106 56 7 -7 -87 -123
-124 -154 -15 -13 -35 -23 -44 -23 -10 0 -18 -5 -18 -10 0 -14 47 -2 85 21 17
10 48 36 70 59 54 56 88 72 152 71 91 -1 93 -16 8 -57 -56 -26 -121 -91 -131
-131 -4 -13 -10 -20 -16 -17 -16 10 -58 -6 -58 -22 0 -13 -8 -15 -51 -9 -64 9
-59 -8 9 -29 47 -15 47 -15 12 -15 -19 -1 -48 -8 -65 -17 -16 -8 -38 -13 -48
-10 -27 7 -47 -3 -47 -25 0 -18 31 -39 80 -54 24 -7 24 -7 7 12 -9 11 -17 21
-17 24 0 2 20 5 44 6 95 3 138 32 232 159 82 111 147 145 219 114 23 -10 22
-11 -23 -15 -37 -4 -56 -15 -26 -15 10 0 32 -9 48 -19 27 -18 31 -18 53 -4 21
14 23 14 17 -1 -4 -10 -1 -16 9 -16 29 0 67 23 67 40 0 31 56 95 104 119 63
31 101 23 163 -33 42 -38 46 -45 34 -60 -19 -22 0 -21 67 4 84 32 168 16 215
-40 30 -35 37 -99 14 -118 -15 -13 -87 2 -87 17 0 40 -156 -10 -227 -72 -18
-16 -21 -27 -17 -61 9 -70 -21 -78 -163 -48 -55 12 -86 0 -203 -79 -52 -35
-127 -77 -165 -92 -125 -51 -153 -66 -159 -84 -9 -29 -46 -46 -97 -44 -34 0
-54 -5 -75 -22 l-29 -22 16 25 c8 14 49 42 90 62 49 25 91 56 125 93 28 30 56
55 62 55 7 0 57 20 112 45 55 25 105 45 110 45 5 0 -7 -16 -28 -35 -20 -19
-32 -35 -25 -35 7 0 31 18 55 41 91 87 95 89 159 89 33 0 76 -7 96 -15 41 -17
53 -19 53 -6 0 5 -13 14 -30 20 -33 11 -37 20 -18 39 10 10 16 8 29 -10 l17
-22 19 33 c55 100 72 119 127 146 48 23 65 27 110 22 62 -6 103 -29 108 -59 4
-28 25 -34 32 -11 10 32 -9 77 -39 92 -49 24 -206 15 -249 -15 -13 -9 -23 -10
-35 -2 -23 14 -70 -8 -136 -64 -53 -44 -118 -77 -149 -78 -11 0 -27 7 -37 16
-10 9 -39 19 -64 21 -74 9 -56 27 37 39 79 9 111 21 185 70 59 40 72 45 110
41 51 -5 77 15 44 32 -50 27 -107 9 -198 -65 -29 -24 -61 -45 -71 -45 -22 -2
-117 2 -161 6 -64 6 -95 -11 -140 -74 -42 -60 -51 -86 -28 -79 12 5 38 41 69
97 9 17 24 31 32 31 12 0 10 -9 -9 -42 -14 -24 -25 -49 -25 -55 0 -23 17 -13
30 16 6 16 23 40 37 53 l25 23 -26 -49 c-14 -27 -26 -57 -26 -68 0 -10 -7 -21
-15 -24 -27 -11 -17 -34 15 -34 22 0 30 5 30 17 0 13 3 14 12 5 17 -17 -7 -40
-61 -56 -25 -8 -59 -21 -76 -30 -16 -9 -37 -16 -46 -16 -9 0 -27 -9 -40 -19
l-24 -20 40 14 c50 16 59 10 22 -17 -15 -11 -46 -38 -68 -59 -46 -44 -95 -73
-108 -64 -10 6 -4 61 10 87 5 10 52 52 105 94 53 41 93 78 90 81 -2 3 -17 -3
-33 -14 -44 -29 -99 -52 -145 -59 -36 -6 -39 -8 -20 -15 l22 -8 -30 -48 c-17
-26 -30 -53 -30 -60 0 -17 -32 -33 -67 -33 -37 0 -67 -21 -144 -102 -59 -60
-69 -67 -114 -72 -106 -13 -151 -27 -197 -61 -51 -37 -76 -69 -83 -105 -6 -31
-48 -100 -82 -134 -26 -27 -28 -27 -31 -8 -5 31 67 170 107 209 39 38 40 46
26 186 -9 86 1 100 45 63 17 -14 36 -26 41 -26 17 0 9 -21 -21 -53 -43 -45
-39 -64 6 -36 27 16 61 24 132 31 109 10 139 24 192 92 34 44 62 62 108 71 51
9 52 35 2 35 -42 0 -47 18 -9 34 27 11 29 15 13 18 -29 6 -83 -8 -104 -27 -10
-9 -28 -42 -41 -73 -28 -71 -62 -109 -111 -122 -43 -12 -88 -4 -88 15 0 15 68
75 84 75 6 0 -5 -16 -24 -35 -18 -19 -31 -38 -27 -41 21 -21 127 66 127 103 0
13 -5 12 -25 -7 -30 -28 -30 -28 -5 51 25 78 37 94 84 114 39 16 43 24 24 43
-17 17 -59 15 -88 -5 -14 -9 -26 -17 -27 -18 -2 -1 -7 -25 -13 -53 -12 -67
-47 -121 -82 -129 -16 -3 -28 -10 -28 -15 0 -6 10 -8 23 -5 21 6 21 6 3 -8
-25 -19 -136 -21 -137 -2 0 6 0 41 0 77 l0 65 -22 -45 c-20 -42 -22 -43 -25
-18 -4 33 11 63 43 84 48 31 82 -5 54 -58 -7 -13 -7 -24 -1 -30 12 -12 55 33
82 86 23 46 18 59 -10 28 l-19 -21 -40 22 c-34 19 -44 20 -61 9 -18 -11 -21
-10 -31 15 -9 25 -15 146 -7 168 2 6 -1 11 -7 12 -18 4 -22 -39 -28 -282 -3
-132 -9 -256 -13 -275 -3 -19 -26 -77 -51 -128 -69 -146 -96 -225 -118 -337
-10 -52 -7 -144 6 -193 12 -48 11 -48 -27 -102 l-39 -54 1 -111 c0 -69 7 -134
17 -175 32 -120 35 -153 42 -405 6 -217 10 -248 37 -293 17 -27 18 -38 9 -64
-16 -46 -13 -108 9 -156 18 -39 18 -45 4 -85 -23 -63 -11 -116 56 -257 33 -69
62 -143 65 -165 6 -37 2 -45 -43 -105 -70 -91 -180 -310 -193 -385 -10 -57 -8
-100 6 -137 13 -33 -181 -119 -300 -133 -55 -6 -87 -23 -111 -60 -14 -21 -16
-42 -11 -109 8 -116 31 -204 84 -316 127 -271 354 -517 645 -700 352 -220 599
-295 1103 -335 39 -3 90 -8 115 -10 25 -3 83 -7 130 -10 140 -10 191 -14 265
-22 121 -14 556 -6 740 12 22 3 65 7 95 9 75 7 120 14 225 37 141 30 447 119
481 140 17 10 48 21 70 24 54 8 103 24 139 45 17 10 47 20 68 23 20 3 51 15
67 27 16 12 41 23 55 26 111 20 497 225 540 287 18 25 18 84 2 146 -20 73 -37
64 -37 -19 0 -66 -2 -74 -28 -99 -27 -24 -141 -71 -173 -71 -10 0 -25 43 -48
133 -62 246 -127 414 -218 570 -25 44 -43 84 -39 93 4 10 -28 51 -97 124 -105
111 -152 168 -145 175 7 7 62 -25 98 -56 19 -17 62 -56 95 -88 78 -74 93 -84
69 -41 -26 45 -123 144 -218 220 -110 88 -160 140 -147 153 17 17 93 -19 140
-68 54 -56 117 -77 221 -73 l73 3 49 -55 c80 -89 143 -189 186 -295 50 -125
124 -337 151 -434 21 -77 37 -105 53 -95 17 11 1 75 -68 271 -98 281 -154 393
-278 557 -48 64 -58 85 -56 110 10 88 4 193 -13 236 -20 48 -53 90 -72 90 -17
0 -50 39 -74 87 -25 51 -26 66 -4 84 30 26 73 92 73 114 0 12 14 49 30 81 35
69 44 144 25 219 -11 41 -11 54 1 77 17 33 18 88 2 123 -19 42 -28 28 -28 -45
0 -38 -4 -70 -10 -70 -5 0 -20 11 -34 25 -19 19 -36 25 -68 26 l-43 1 30 13
c16 7 46 11 65 8 33 -5 34 -5 18 12 -20 22 -77 22 -142 0 -87 -30 -116 -23
-176 41 l-35 37 46 -27 c59 -34 93 -33 171 4 44 21 77 30 108 29 73 -2 79 0
92 24 7 12 16 52 20 89 4 38 12 101 17 140 9 80 7 739 -4 803 -19 123 -41 227
-75 370 -46 190 -76 342 -89 445 -9 80 -8 276 4 401 8 92 -2 120 -73 195 -61
67 -137 125 -235 181 -44 26 -90 61 -105 81 -15 20 -59 68 -98 107 -93 92
-173 133 -297 150 -80 11 -94 16 -115 41 -54 66 -70 91 -76 119 -12 53 -53
103 -114 138 -32 19 -78 48 -101 65 -96 70 -269 102 -356 66z m125 -11 c9 -8
8 -129 -2 -148 -6 -11 -21 -31 -34 -44 -26 -26 -23 -45 7 -36 44 14 1 -47 -46
-65 -14 -5 -55 -15 -92 -21 -85 -14 -97 -20 -155 -77 -26 -25 -50 -44 -52 -41
-9 9 40 136 64 166 33 41 67 55 126 52 39 -3 48 0 54 17 5 11 26 32 49 47 23
15 41 32 41 37 0 14 -2 13 -51 -14 -24 -13 -79 -38 -121 -56 -55 -22 -90 -45
-120 -76 -45 -47 -68 -56 -68 -24 0 47 84 109 195 144 64 20 118 53 110 67 -5
7 -13 5 -25 -6 -27 -24 -37 1 -13 32 35 48 105 72 133 46z m105 -70 c3 -17 10
-33 15 -35 31 -10 15 -99 -27 -156 -32 -43 -40 -35 -14 16 25 49 20 104 -14
148 -24 31 -32 64 -20 76 14 14 54 -19 60 -49z m64 17 c5 0 20 -9 35 -21 21
-17 24 -24 15 -35 -25 -31 -67 -6 -53 31 4 10 0 15 -15 15 -12 0 -21 5 -21 11
0 6 7 8 16 5 9 -3 19 -6 23 -6z m-339 -15 c0 -16 -44 -49 -80 -60 -47 -14
-115 -53 -139 -79 l-24 -26 -19 41 c-10 23 -18 45 -18 49 0 10 92 45 180 69
84 22 100 23 100 6z m235 -99 c-6 -72 -67 -166 -109 -166 -6 0 -42 -25 -81
-56 -75 -60 -131 -91 -180 -96 -49 -5 -44 27 13 82 42 40 59 50 99 55 101 13
114 17 147 45 30 27 96 142 96 169 0 6 4 11 10 11 5 0 8 -20 5 -44z m272 7
c33 -15 78 -71 68 -82 -3 -2 -19 10 -36 27 -17 18 -41 33 -53 33 -21 2 -78 6
-106 8 -12 1 -11 5 4 16 26 20 80 19 123 -2z m11 -69 c13 -9 21 -22 18 -29 -8
-21 19 -66 56 -98 l33 -27 -90 31 c-99 34 -148 64 -79 49 46 -11 53 -6 30 19
-25 28 -73 31 -133 11 -56 -20 -59 -19 -43 10 29 54 147 73 208 34z m85 -74
c3 -13 0 -20 -9 -20 -8 0 -14 10 -14 26 0 28 15 25 23 -6z m-938 -70 c-23 -45
-27 -33 -7 25 12 36 18 44 20 28 2 -12 -4 -36 -13 -53z m608 11 c-26 -15 -68
-40 -93 -57 -78 -53 -140 -68 -140 -33 0 6 7 8 16 5 18 -7 64 18 64 35 0 6 -6
7 -12 3 -7 -4 -1 6 13 21 15 15 39 29 53 30 15 2 32 8 39 13 13 11 74 20 95
13 8 -2 -8 -16 -35 -30z m186 10 c2 -1 -2 -7 -8 -15 -10 -12 -7 -15 19 -14 29
1 49 -14 50 -36 0 -4 -10 -5 -22 -2 -75 22 -162 13 -189 -20 -14 -18 -10 -17
34 1 61 25 104 20 143 -19 34 -34 43 -59 24 -71 -5 -3 -10 -22 -10 -41 0 -21
-4 -33 -10 -29 -5 3 -10 28 -10 55 0 68 -15 74 -102 44 -68 -24 -69 -24 -138
-8 -39 10 -70 20 -70 24 0 8 58 62 95 87 50 35 143 55 194 44z m-689 -28 c0
-10 -5 -25 -10 -33 -7 -11 -10 -7 -10 18 0 17 5 32 10 32 6 0 10 -8 10 -17z
m845 -33 c-3 -5 -12 -7 -20 -3 -21 7 -19 13 6 13 11 0 18 -4 14 -10z m-1117
-48 c2 -31 -1 -42 -11 -42 -15 0 -25 40 -19 73 7 33 27 11 30 -31z m1466 -32
c72 -34 176 -132 175 -164 0 -20 -1 -20 -17 4 -29 44 -98 107 -131 118 -17 6
-31 7 -31 2 0 -5 8 -11 18 -14 10 -4 32 -19 49 -34 35 -31 113 -123 113 -134
0 -3 -33 12 -72 34 -119 65 -160 78 -249 78 -51 0 -78 4 -74 10 3 6 -3 11 -14
11 -12 1 -30 2 -40 3 -25 1 -40 16 -17 16 9 0 15 4 11 9 -3 6 -28 7 -57 4 -61
-7 -59 4 8 43 105 62 218 67 328 14z m-1354 23 c0 -4 -17 -24 -37 -45 -48 -49
-26 -48 49 2 33 22 67 40 76 40 20 0 102 -48 102 -60 0 -14 -13 -12 -36 5 -28
21 -29 20 -26 -34 2 -27 -1 -58 -7 -68 -9 -16 -11 -16 -12 7 -1 14 -1 33 0 43
4 32 -17 17 -23 -18 -9 -46 -29 -59 -22 -13 5 33 -7 68 -19 56 -4 -3 -8 -24
-9 -46 -3 -42 -24 -76 -65 -107 -24 -18 -25 -18 -88 16 -35 19 -76 44 -91 56
l-27 21 28 30 c15 16 45 34 67 41 21 6 57 27 80 46 40 34 60 43 60 28z m565
-61 c58 -31 85 -54 89 -78 2 -12 25 -54 50 -94 50 -80 65 -128 46 -140 -22
-13 -46 0 -100 56 -49 50 -65 59 -97 55 -7 -1 -55 16 -107 39 -52 22 -105 40
-118 40 -34 0 -68 11 -68 21 0 18 55 31 130 31 59 1 90 -5 143 -27 74 -29 94
-28 50 3 -73 51 -93 56 -211 54 -93 -1 -114 1 -119 14 -8 21 -4 23 68 38 92
19 195 14 244 -12z m246 -3 c11 -5 17 -14 14 -19 -6 -10 -45 9 -45 22 0 11 8
10 31 -3z m-18 -51 c57 -38 86 -71 98 -107 6 -20 24 -53 40 -73 41 -52 36 -69
-7 -27 -43 41 -146 165 -162 196 -22 40 -14 43 31 11z m-18 -80 c27 -35 59
-88 72 -118 13 -30 29 -65 35 -77 19 -38 2 -36 -21 2 -11 19 -31 39 -44 44
-29 11 -143 204 -131 223 10 15 42 -11 89 -74z m-1461 11 c-20 -22 -113 -73
-120 -66 -7 7 39 54 80 81 46 31 72 21 40 -15z m1980 16 c54 -6 69 -12 61 -25
-12 -19 -155 -46 -155 -30 0 5 17 12 38 16 20 4 44 10 52 15 24 14 -19 11
-100 -6 -39 -8 -85 -13 -102 -10 -32 6 -118 42 -118 50 0 5 258 -3 324 -10z
m-1521 -19 c29 -13 77 -42 107 -65 50 -38 59 -41 95 -35 22 3 54 15 71 25 46
28 57 25 39 -11 -33 -63 -126 -66 -215 -7 -90 59 -168 56 -241 -10 -45 -41
-46 -38 -19 37 34 93 71 108 163 66z m1190 -28 c8 -17 13 -38 9 -46 -4 -12
-10 -9 -29 12 -25 30 -31 66 -9 66 7 0 20 -14 29 -32z m-538 -28 c3 -6 3 -10
-2 -10 -11 1 -43 26 -43 34 0 9 37 -11 45 -24z m-60 -9 c22 -10 52 -31 68 -46
46 -47 34 -59 -39 -40 -48 12 -65 11 -161 -9 -21 -4 -110 15 -132 29 -17 10
66 72 109 83 46 11 105 4 155 -17z m1140 -13 l39 -15 -44 -7 c-25 -3 -94 -9
-155 -13 -102 -6 -109 -5 -96 10 12 15 9 17 -40 17 -33 0 -49 4 -43 9 22 22
278 21 339 -1z m138 -19 c84 -42 186 -110 217 -143 l25 -27 -25 9 c-14 6 -38
17 -54 25 -23 12 -68 15 -227 15 -215 0 -262 9 -188 35 39 14 41 16 22 22 -13
4 -21 10 -18 14 14 24 251 -4 315 -38 49 -25 68 -27 49 -5 -16 20 -98 62 -134
68 -32 6 -55 23 -55 42 0 19 2 18 73 -17z m-1065 -28 c23 -12 46 -31 53 -42
11 -21 10 -21 -42 -16 -48 5 -59 11 -91 48 -21 23 -38 45 -38 50 0 10 61 -11
118 -40z m582 -11 c73 -21 147 -65 198 -116 45 -45 21 -44 -34 2 -25 20 -49
32 -56 28 -8 -5 -9 -2 -5 9 5 12 1 17 -13 17 -10 0 -22 -5 -25 -10 -10 -16 11
-37 62 -62 45 -23 139 -106 130 -115 -3 -2 -39 14 -81 37 -42 23 -82 40 -88
37 -8 -2 0 -11 17 -20 32 -16 171 -155 198 -198 10 -14 14 -29 10 -32 -12 -12
-46 -7 -57 8 -10 14 -144 50 -153 41 -7 -7 140 -68 175 -72 47 -6 63 5 71 50
l6 36 84 -70 c47 -38 89 -70 94 -70 15 0 -10 25 -102 102 -47 40 -99 86 -114
102 -82 85 72 -4 163 -94 75 -75 124 -158 122 -207 -1 -19 3 -31 7 -28 5 3 10
-14 10 -37 0 -24 4 -66 9 -93 5 -28 9 -102 11 -165 l2 -115 -23 35 c-16 25
-23 30 -25 19 -5 -23 44 -130 58 -127 22 6 78 -119 80 -182 4 -85 0 -88 -30
-28 -16 32 -39 71 -50 87 -63 88 -115 204 -125 276 -3 22 -25 76 -51 120 -54
96 -80 159 -72 180 4 9 19 15 36 15 34 0 101 -56 101 -85 0 -11 5 -15 14 -12
19 8 23 -5 25 -93 1 -41 6 -81 11 -89 13 -23 23 65 16 140 -11 123 -26 165
-74 211 -43 41 -70 52 -169 73 -40 8 -89 21 -108 29 -21 9 -37 11 -40 5 -11
-17 109 -60 208 -74 27 -4 58 -16 72 -28 25 -23 68 -98 60 -105 -3 -3 -23 8
-45 23 -29 20 -58 30 -103 34 l-62 6 65 20 65 19 -91 7 c-111 8 -172 37 -274
130 -19 17 -69 57 -110 88 -41 31 -86 66 -100 79 -14 12 -32 22 -40 23 -78 3
-114 19 -92 41 19 19 86 -10 193 -83 71 -48 104 -64 143 -70 28 -4 59 -10 69
-14 9 -4 17 -3 17 3 0 6 -24 18 -52 28 -73 23 -120 48 -188 98 -31 23 -73 48
-91 55 -19 7 -45 17 -59 23 l-25 10 25 10 c14 5 60 7 103 3 51 -4 77 -2 77 5
0 5 -6 10 -13 10 -7 0 -21 6 -31 13 -15 11 -14 13 15 15 39 3 60 18 52 38 -7
18 -43 18 -113 -1 -30 -8 -56 -15 -57 -15 -2 0 -3 9 -3 20 0 12 9 24 23 29 21
9 21 10 -10 21 -89 32 50 32 157 0z m-238 -45 c11 -20 11 -20 -11 0 -13 11
-28 29 -33 40 -11 20 -11 20 11 0 13 -11 28 -29 33 -40z m-2057 -25 c-8 -14
-86 -53 -92 -47 -4 5 5 11 67 44 30 16 33 16 25 3z m1536 -9 c-14 -25 -79 -81
-95 -81 -8 0 -20 7 -27 16 -16 19 0 34 66 65 53 25 69 25 56 0z m163 4 c3 -8
16 -15 28 -15 45 0 98 -21 114 -46 23 -33 10 -43 -20 -15 l-25 23 -107 -16
c-78 -11 -113 -21 -128 -35 -28 -26 -73 -117 -80 -160 -9 -62 23 -103 64 -81
16 9 20 24 22 98 l3 87 14 -40 c15 -43 47 -85 66 -85 7 0 12 15 12 38 0 99 36
109 41 11 2 -35 7 -68 13 -73 6 -6 9 -6 9 2 0 7 5 12 10 12 6 0 10 -11 10 -25
0 -15 -6 -25 -14 -25 -29 0 -27 -21 3 -31 17 -6 31 -16 31 -22 0 -19 11 0 16
28 6 32 39 101 54 110 5 3 15 15 21 26 9 18 6 17 -30 -6 -53 -33 -52 -21 3 33
30 28 54 42 73 43 99 3 117 -1 95 -23 -20 -20 -14 -24 28 -20 28 3 50 -2 75
-18 26 -16 45 -21 66 -16 40 8 75 -11 127 -68 40 -43 56 -83 30 -73 -78 29
-72 7 6 -28 37 -16 60 -35 81 -66 36 -54 76 -99 88 -99 12 0 87 -53 87 -62 0
-4 -12 -3 -26 3 -40 15 -39 5 3 -27 128 -97 124 -115 -15 -68 -45 15 -101 43
-136 70 -46 34 -62 41 -73 33 -15 -13 -1 -39 21 -39 6 0 54 -33 106 -73 68
-53 109 -93 147 -147 29 -41 58 -77 64 -79 20 -6 -2 42 -50 108 -25 35 -53 72
-61 83 -14 20 -12 20 29 -2 98 -50 213 -207 196 -267 -5 -16 -8 -57 -8 -93 l1
-65 -30 59 c-16 32 -31 56 -34 54 -2 -3 7 -54 21 -114 25 -112 32 -204 15
-204 -5 0 -11 15 -14 33 -3 17 -10 61 -15 97 -7 46 -29 102 -72 190 -77 155
-91 175 -143 207 -55 34 -108 85 -96 93 5 3 -14 31 -43 62 -28 30 -67 74 -86
97 -42 53 -175 167 -222 192 -20 10 -53 19 -74 21 -49 3 -51 11 -7 35 53 29
84 17 183 -72 46 -42 110 -93 142 -113 32 -20 77 -49 100 -64 23 -15 44 -25
46 -22 10 10 -43 53 -102 82 -35 18 -81 50 -102 73 l-40 42 35 -8 c51 -11 69
-11 72 -1 2 5 -17 14 -42 20 -25 7 -74 34 -110 60 -82 60 -82 60 -43 53 18 -4
40 -4 48 -1 19 8 20 34 0 34 -8 0 -15 5 -15 10 0 17 -83 11 -120 -9 -19 -10
-49 -27 -67 -36 -36 -19 -81 -78 -86 -115 -4 -24 30 -110 43 -110 4 0 12 18
19 40 21 69 51 48 51 -36 0 -24 2 -44 5 -44 3 0 19 15 35 34 39 44 60 48 109
24 60 -29 74 -53 17 -27 -74 32 -105 12 -111 -70 -2 -28 -2 -51 0 -51 2 0 14
18 26 40 14 24 33 43 47 47 26 6 132 -22 132 -36 0 -4 -16 -13 -35 -20 -46
-16 -68 -50 -59 -87 9 -38 22 -54 45 -54 13 0 19 -7 19 -24 0 -14 9 -40 19
-58 18 -31 22 -53 36 -208 13 -137 20 -179 49 -296 19 -74 23 -113 21 -203 -6
-215 -20 -371 -35 -371 -5 0 -12 -10 -16 -22 -4 -13 -17 -36 -29 -53 -28 -38
-67 -125 -55 -125 4 0 24 19 44 43 20 23 36 36 36 29 0 -21 -61 -101 -83 -108
-40 -13 -43 45 -6 96 12 15 19 36 17 46 -5 25 -55 -58 -64 -107 -4 -19 -17
-48 -31 -66 l-23 -32 25 -17 c14 -9 42 -17 62 -18 46 -3 88 -48 104 -111 10
-39 17 -48 48 -61 37 -15 81 -51 81 -66 0 -14 -83 -9 -140 8 -77 23 -108 57
-108 122 -1 55 -6 72 -24 72 -7 0 -9 -20 -5 -60 4 -48 2 -60 -9 -60 -17 0
-117 90 -109 98 2 3 11 -1 20 -8 20 -16 19 -1 -1 29 -9 12 -50 38 -91 57 -101
46 -210 120 -228 154 -8 15 -17 43 -20 61 -7 37 -21 59 -40 59 -6 0 -20 9 -30
20 -33 37 -98 16 -107 -35 -6 -30 3 -32 20 -5 14 23 44 26 60 8 15 -19 44
-125 40 -150 -2 -18 -10 -23 -41 -25 -22 -1 -50 -9 -64 -18 -14 -9 -27 -15
-29 -12 -8 8 -16 207 -17 463 -2 300 4 331 73 379 63 44 65 25 6 -44 -66 -77
-71 -107 -27 -167 37 -50 96 -105 88 -81 -9 24 3 21 44 -9 126 -95 209 -87
338 32 82 76 105 90 152 98 21 3 51 17 66 30 25 22 28 31 28 85 -1 133 -88
160 -446 138 -163 -11 -215 -20 -271 -48 -83 -42 -98 -122 -93 -509 2 -162 6
-308 8 -324 4 -23 -1 -35 -23 -57 -24 -25 -36 -29 -82 -29 -33 0 -62 6 -76 16
-13 9 -25 14 -28 11 -10 -10 9 -35 39 -49 27 -12 43 -13 100 -3 37 6 67 8 67
4 0 -4 -19 -14 -42 -24 -67 -26 -154 -1 -182 53 -18 35 -87 74 -123 70 -25 -3
-28 0 -31 30 -4 41 23 135 44 153 12 10 20 10 35 1 16 -10 19 -9 19 7 0 27
-32 35 -73 18 -60 -25 -102 -100 -78 -138 17 -28 22 -86 8 -97 -7 -5 -30 -15
-52 -22 -22 -7 -65 -26 -95 -41 -30 -16 -65 -29 -76 -29 -40 0 -64 -31 -74
-94 -8 -49 -7 -63 5 -76 10 -11 13 -31 11 -64 -3 -35 0 -52 12 -65 9 -9 18
-28 19 -41 2 -43 44 -140 59 -140 8 0 14 9 14 19 0 26 10 51 21 51 16 0 11
-90 -5 -96 -8 -3 -19 -19 -25 -35 -9 -25 -8 -29 8 -29 39 0 32 -68 -8 -89 -16
-9 -24 -6 -45 21 -22 28 -23 35 -11 47 12 12 11 18 -5 42 l-20 27 28 -2 c40
-2 38 18 -3 22 -32 3 -38 9 -68 65 -31 60 -32 65 -31 182 1 66 4 131 7 145 3
14 6 33 6 43 1 9 10 26 22 38 11 11 19 22 17 24 -8 9 -117 -55 -160 -94 -36
-32 -51 -55 -59 -87 -15 -60 -29 -65 -29 -10 0 67 14 88 96 141 93 59 116 95
62 95 -11 0 -18 -7 -18 -19 0 -26 -44 -33 -59 -9 -6 10 -11 26 -12 35 0 11 -5
6 -11 -12 -6 -16 -17 -34 -24 -38 -8 -4 -14 -17 -14 -28 0 -11 -4 -17 -10 -14
-5 3 -10 17 -10 30 0 13 5 27 10 30 6 3 10 13 10 22 0 13 -3 13 -16 2 -14 -11
-15 -6 -13 52 3 93 0 119 -12 119 -5 0 -17 -16 -25 -35 -14 -34 -13 -38 6 -62
28 -36 17 -42 -14 -8 -32 34 -32 50 -4 137 12 37 19 70 16 74 -12 11 -28 -7
-28 -31 0 -32 -17 -41 -40 -20 -10 9 -29 15 -42 14 -30 -4 -49 8 -42 26 4 8
10 13 14 10 26 -16 22 97 -5 163 -17 40 -19 72 -5 72 6 0 10 -4 10 -10 0 -5 5
-10 10 -10 14 0 12 42 -4 62 -8 11 -11 35 -8 68 3 41 1 50 -12 50 -25 0 -19
12 21 47 37 31 37 32 18 46 -19 15 -19 15 2 69 12 29 24 67 26 83 3 17 12 51
20 76 20 61 10 79 -35 60 -18 -8 -50 -16 -72 -19 -48 -6 -46 13 5 39 48 25 84
30 107 13 15 -10 23 -11 28 -3 4 6 -1 16 -10 21 -16 9 -16 11 -1 35 18 27 13
26 -38 -10 -47 -33 -40 -13 15 43 58 57 53 57 -35 -3 -32 -21 -60 -37 -63 -35
-9 10 29 48 49 48 20 1 21 2 5 14 -19 14 -25 32 -8 21 23 -14 110 47 110 77 0
5 -19 8 -41 8 -41 0 -41 0 -27 23 9 13 32 26 57 31 49 12 52 27 11 58 -40 29
-42 58 -3 32 15 -9 39 -28 53 -41 30 -28 37 -16 16 26 -23 43 -20 54 9 47 36
-9 31 1 -12 23 -22 11 -52 17 -70 15 -35 -4 -42 6 -18 26 10 8 35 11 75 7 43
-3 60 -1 60 7 0 16 -37 36 -72 38 -31 3 -36 13 -12 22 30 11 58 6 81 -16 26
-24 38 -20 28 11 -4 13 -21 25 -48 32 -60 18 -65 26 -21 38 65 18 85 14 126
-26 34 -33 40 -36 53 -22 9 8 20 41 25 72 5 32 12 62 15 67 11 17 25 11 36
-16 5 -15 12 -24 16 -20 11 10 -17 53 -45 67 -14 8 -51 14 -84 14 -53 -1 -56
1 -34 12 13 7 47 14 75 16 53 4 83 17 40 17 -13 0 -31 5 -39 11 -11 8 -3 9 30
4 34 -4 63 -20 118 -62 80 -61 115 -69 144 -33 22 28 23 63 2 95 -9 14 -14 26
-10 26 3 1 9 2 14 3 4 1 21 5 38 9 19 5 58 36 104 82 41 41 82 75 91 75 8 0
27 -17 40 -37 20 -31 31 -39 62 -41 30 -3 43 2 66 26 16 16 35 48 41 72 17 63
90 131 171 158 78 26 76 26 83 7z m264 -46 c22 -14 39 -46 29 -55 -9 -9 -78
14 -98 32 -11 9 -19 25 -19 34 0 15 5 17 33 11 17 -4 42 -14 55 -22z m943 0
c80 -21 116 -47 106 -74 -6 -15 -23 -18 -97 -18 -48 -1 -142 14 -136 21 3 3
50 7 103 9 207 9 83 39 -159 38 -64 0 -114 2 -111 5 10 11 131 38 172 39 25 1
79 -8 122 -20z m-1983 -71 c-28 -37 -91 -83 -127 -93 -39 -12 -20 16 30 42 24
13 57 37 74 53 40 40 54 38 23 -2z m869 18 c3 -3 3 -10 1 -16 -2 -8 -12 -4
-28 9 l-25 20 24 -4 c13 -2 26 -6 28 -9z m-371 -41 c-4 -31 -30 -71 -56 -85
-15 -8 -23 -6 -40 12 -25 27 -26 37 -2 34 9 -2 17 -8 17 -14 0 -30 16 -19 39
27 28 55 46 66 42 26z m1369 -9 c123 -32 196 -34 249 -5 39 20 39 20 59 1 20
-21 27 -96 9 -114 -12 -12 -93 -17 -119 -7 -27 10 -30 28 -5 35 38 12 104 45
99 50 -3 4 -22 1 -43 -6 -51 -17 -96 -15 -193 10 -45 12 -91 20 -100 17 -10
-2 -23 4 -30 14 -6 11 -19 19 -29 19 -9 0 -24 5 -32 11 -20 14 4 9 135 -25z
m-120 -26 c45 -31 83 -70 68 -70 -5 0 -18 9 -29 21 -10 12 -40 32 -66 45 -26
13 -50 29 -54 35 -11 18 36 0 81 -31z m-855 24 c0 -14 -34 -62 -51 -72 -25
-16 -26 4 -2 38 23 34 53 53 53 34z m-723 -42 c-22 -24 -21 -34 0 -30 21 4 27
-21 10 -42 -19 -24 -78 -70 -88 -70 -6 0 -6 7 0 18 6 11 13 41 17 68 7 56 17
71 47 76 30 5 33 1 14 -20z m1712 -14 c54 -29 132 -93 154 -129 l18 -28 -27
-7 c-35 -9 -78 14 -82 43 -2 11 -28 48 -58 82 -31 34 -53 61 -51 61 3 0 23
-10 46 -22z m-2139 -48 c-26 -20 -69 -34 -77 -26 -12 12 40 46 70 46 l32 0
-25 -20z m2437 -64 c11 -11 -10 -26 -37 -26 -55 0 -83 24 -37 33 24 4 67 1 74
-7z m-2169 -40 c44 -28 52 -47 40 -93 -10 -38 -32 -36 -74 9 l-29 30 25 -6
c23 -6 22 -4 -10 23 -19 17 -50 34 -70 38 l-35 6 30 14 c38 16 74 10 123 -21z
m1500 -55 c13 -14 32 -40 43 -58 11 -18 42 -48 69 -68 55 -40 110 -100 110
-118 -1 -15 -280 268 -280 284 0 14 23 -2 58 -40z m576 8 c-8 -13 -24 -1 -24
18 0 13 3 13 15 3 8 -7 12 -16 9 -21z m86 12 c12 -24 13 -61 2 -61 -10 0 -32
45 -32 65 0 21 17 18 30 -4z m-40 -35 c0 -1 -5 -17 -11 -35 -13 -36 -33 -40
-82 -15 -43 22 -44 24 -27 34 20 13 26 12 44 -5 12 -12 20 -14 36 -5 11 6 20
15 20 20 0 6 5 10 10 10 6 0 10 -2 10 -4z m9 -88 c-18 -32 -12 -72 16 -129 14
-27 21 -49 15 -49 -14 0 -71 81 -64 92 3 5 -2 18 -12 29 -16 18 -16 19 0 19 9
0 15 4 12 8 -6 11 22 52 35 52 6 0 5 -9 -2 -22z m-2369 -5 c9 -10 -6 -53 -18
-53 -5 0 -26 11 -46 25 -46 31 -66 31 -127 0 -27 -13 -49 -22 -49 -19 0 8 33
40 55 53 22 13 172 9 185 -6z m-617 -10 c-7 -2 -21 -2 -30 0 -10 3 -4 5 12 5
17 0 24 -2 18 -5z m3027 -22 c0 -12 -20 -25 -27 -18 -7 7 6 27 18 27 5 0 9 -4
9 -9z m-2670 -13 c0 -6 -20 -31 -45 -55 -49 -47 -54 -55 -27 -47 9 3 0 -11
-21 -31 l-38 -36 36 7 c19 3 35 4 35 1 0 -2 -12 -26 -26 -51 -41 -74 -83 -111
-152 -136 -66 -24 -82 -37 -59 -46 8 -3 48 11 88 30 116 56 128 48 47 -33 -42
-40 -67 -56 -117 -71 -35 -11 -66 -18 -68 -16 -6 6 51 37 92 51 16 5 31 18 33
27 3 16 1 16 -31 3 -19 -8 -37 -12 -40 -8 -4 3 -22 -4 -42 -16 l-36 -21 12 23
c6 12 41 50 78 84 61 58 74 83 24 48 -49 -34 -33 20 35 115 16 23 16 24 0 17
-32 -12 -20 21 25 70 59 64 197 128 197 91z m-239 -86 c-16 -46 -58 -112 -71
-112 -17 0 -11 69 10 110 37 72 86 74 61 2z m2858 -166 c21 -86 76 -176 108
-176 9 0 13 -15 14 -47 1 -69 7 -102 29 -153 22 -55 47 -186 54 -295 4 -61 3
-74 -5 -55 -16 39 -37 138 -43 209 -7 69 -24 116 -27 71 -10 -153 48 -362 93
-334 14 9 8 -10 -12 -36 -22 -29 -22 -29 -43 30 -8 25 -24 70 -35 100 -11 30
-23 96 -27 145 -14 196 -25 239 -117 437 -32 69 -58 137 -58 150 l1 23 15 -25
15 -25 -6 33 c-16 99 -16 100 9 47 12 -27 28 -72 35 -99z m-819 105 c-20 -16
-37 -24 -39 -18 -5 13 36 47 57 47 11 0 4 -10 -18 -29z m860 -33 c22 -51 64
-207 57 -214 -3 -3 -11 12 -17 33 -7 21 -18 45 -25 53 -12 14 -55 140 -55 161
0 24 23 4 40 -33z m-3430 12 c-24 -15 -37 -11 -16 5 11 8 22 12 25 9 3 -3 -1
-9 -9 -14z m219 -34 c-47 -44 -69 -56 -125 -72 -57 -15 -77 -27 -130 -76 -34
-32 -65 -55 -68 -50 -2 4 6 27 20 51 29 52 30 60 4 36 -43 -39 -13 21 39 79
28 31 114 76 146 76 14 0 7 -8 -22 -26 -53 -31 -56 -50 -5 -28 82 35 158 60
187 62 6 1 -15 -23 -46 -52z m207 27 c4 -16 15 -42 25 -59 18 -29 18 -32 0
-64 -23 -43 -37 -48 -38 -13 0 16 -3 58 -7 96 -5 44 -4 67 3 67 6 0 14 -12 17
-27z m-111 -65 c-9 -29 -32 -80 -50 -113 -19 -33 -37 -80 -41 -105 l-6 -45 47
75 c26 41 56 85 67 96 17 19 18 25 6 43 -10 16 -10 23 0 33 18 18 36 -5 36
-47 0 -24 -10 -48 -32 -77 -60 -80 -76 -125 -75 -213 1 -44 7 -93 13 -110 l11
-30 -29 35 c-30 35 -52 37 -34 3 6 -10 13 -40 16 -68 l6 -50 -19 55 c-22 60
-77 120 -111 120 -16 0 -7 -13 41 -60 34 -33 58 -64 55 -68 -4 -4 -17 4 -28
18 l-19 24 3 -59 c3 -56 2 -59 -27 -76 -16 -9 -50 -19 -75 -22 l-44 -5 27 20
c21 15 27 28 27 58 0 21 -4 50 -10 64 -7 20 -6 26 5 26 20 0 55 -49 55 -76 0
-23 19 -35 21 -14 1 6 2 16 3 23 4 21 -28 68 -59 87 -16 10 -61 31 -98 45 -76
31 -97 54 -103 114 -5 51 10 89 38 100 13 5 44 29 69 53 28 26 71 52 108 67
34 13 82 38 107 57 24 19 46 34 49 34 2 0 -2 -19 -11 -42 -8 -22 -12 -43 -10
-45 6 -6 56 61 56 75 0 20 20 65 27 59 3 -4 -2 -30 -12 -59z m2762 -21 c3 -20
1 -37 -4 -37 -8 0 -22 32 -38 90 l-7 25 21 -21 c12 -11 24 -37 28 -57z m-330
-13 c118 -75 198 -189 208 -296 6 -56 -5 -114 -20 -111 -5 1 -18 35 -27 75
-18 70 -73 196 -100 228 -7 9 -27 26 -45 38 -17 12 -35 31 -38 42 -9 29 -71
43 -109 25 -46 -23 -44 -4 4 28 31 22 57 16 127 -29z m-47 -62 c0 -12 -68 -48
-75 -40 -11 10 33 48 55 48 11 0 20 -4 20 -8z m709 -146 c11 -34 25 -88 32
-121 15 -74 18 -260 4 -274 -7 -7 -10 26 -11 97 -1 117 -32 257 -79 361 -32
68 -31 74 5 32 16 -19 38 -62 49 -95z m-649 96 c0 -5 -12 -13 -27 -19 l-28
-10 37 -7 c35 -8 96 -51 86 -62 -3 -2 -18 2 -33 10 -19 10 -45 13 -80 10 -59
-6 -72 6 -51 47 8 17 23 26 51 30 22 3 41 7 43 8 1 0 2 -3 2 -7z m-2909 -14
c2 -18 2 -18 -4 -68 -6 -50 -11 -67 -37 -126 -26 -57 -29 -103 -12 -147 13
-33 12 -40 -1 -61 -16 -24 -77 -73 -77 -61 0 3 10 19 21 35 18 24 20 36 14 67
-12 59 -11 172 3 235 18 77 89 173 93 126z m3498 -71 c11 -23 23 -56 26 -72
l7 -30 -19 30 c-19 29 -43 89 -43 106 0 19 10 7 29 -34z m-2739 0 c0 -20 -127
-127 -150 -127 -8 0 -28 -11 -44 -25 -36 -31 -43 -32 -24 -2 8 12 33 32 54 44
31 18 35 23 21 29 -10 3 -28 -1 -42 -10 -14 -9 -25 -14 -25 -12 0 11 45 46 59
46 9 0 41 14 71 30 49 26 80 36 80 27z m-218 -25 c6 -22 -15 -66 -25 -56 -9 9
-9 59 0 67 11 12 21 8 25 -11z m2435 -39 c33 -15 73 -77 59 -90 -3 -3 -22 13
-44 36 -46 48 -92 55 -136 20 -27 -21 -44 -21 -31 1 8 14 83 49 103 50 8 0 30
-8 49 -17z m400 -60 c78 -63 108 -137 118 -293 5 -75 4 -81 -11 -69 -14 11
-15 9 -12 -16 4 -36 37 -48 45 -16 9 36 20 23 37 -46 19 -75 51 -132 104 -180
50 -48 26 -40 -40 12 -32 25 -58 41 -58 36 0 -5 28 -37 62 -70 34 -33 60 -62
57 -65 -13 -13 -84 22 -120 58 -44 44 -66 79 -73 121 -6 31 -13 41 -22 32 -4
-3 -2 -24 4 -47 12 -47 -2 -54 -35 -17 -30 32 -50 86 -57 152 -3 35 -16 75
-32 102 -31 53 -46 101 -34 108 11 7 70 -61 86 -101 8 -19 14 -44 14 -58 0
-31 9 -56 21 -56 31 0 -8 123 -67 211 -50 75 -67 119 -46 119 5 0 35 -22 66
-50 31 -27 61 -50 67 -50 27 0 -10 65 -93 161 -70 81 -64 89 19 22z m-401 -8
c26 -17 32 -45 10 -45 -28 0 -46 12 -46 32 0 17 -5 19 -32 13 -30 -5 -32 -5
-15 9 21 17 49 14 83 -9z m184 4 c6 -11 14 -60 17 -110 6 -90 0 -106 -27 -74
-18 21 -21 14 -11 -23 5 -17 12 -59 16 -94 4 -35 13 -81 21 -103 7 -22 14 -48
14 -58 0 -26 -28 -32 -50 -12 -27 24 -39 10 -14 -15 10 -10 36 -21 57 -23 21
-2 40 -6 42 -9 2 -2 18 -44 35 -92 34 -94 63 -148 100 -181 12 -11 26 -30 31
-42 7 -19 14 -22 38 -17 78 16 101 -17 105 -153 2 -48 6 -96 11 -105 11 -27
-38 -23 -69 5 -29 26 -66 93 -66 120 0 42 -31 88 -93 136 -69 55 -87 86 -87
154 0 48 -19 117 -33 117 -5 0 -7 -19 -5 -45 3 -24 2 -42 -3 -39 -5 3 -9 11
-9 18 0 7 -18 50 -41 95 -22 45 -39 93 -37 105 2 16 -6 31 -22 44 -23 19 -25
26 -25 110 0 87 1 92 34 139 29 39 36 59 39 111 5 65 14 76 32 41z m-2475 -53
c-4 -51 -23 -92 -75 -162 -21 -28 -45 -67 -53 -86 -18 -42 -68 -83 -135 -108
-66 -25 -87 -10 -25 18 27 11 59 24 73 28 28 7 72 43 65 54 -2 4 -28 -5 -58
-19 -29 -14 -73 -34 -98 -43 -79 -32 -112 -71 -123 -147 -3 -24 -13 -57 -21
-74 -17 -35 -20 -61 -5 -52 6 4 22 28 35 55 28 56 88 120 112 120 14 0 14 -2
-1 -22 -42 -58 -56 -85 -56 -110 0 -15 -5 -30 -12 -34 -8 -5 -9 -1 -4 12 4 11
-8 4 -27 -18 -19 -20 -49 -44 -68 -54 -45 -23 -131 -24 -154 0 -34 33 -112 -1
-146 -63 -26 -49 -33 -50 -26 -7 4 27 18 52 44 78 l38 39 -29 -7 c-47 -11 -27
16 40 56 49 29 55 36 36 38 -13 2 -34 -4 -48 -12 -19 -13 -24 -14 -24 -3 0 8
24 26 53 42 75 40 115 72 133 106 8 17 18 29 21 26 10 -11 -10 -69 -34 -98
-28 -32 -26 -44 5 -35 20 7 43 51 63 124 7 23 18 47 24 52 7 5 56 19 111 30
177 36 260 99 284 214 8 41 19 62 41 81 17 14 35 25 39 25 5 0 8 -20 5 -44z
m-610 -6 c25 -26 27 -33 17 -55 -7 -14 -12 -36 -12 -49 0 -57 -148 -219 -193
-211 -29 6 -57 41 -57 72 0 22 3 24 23 19 49 -15 97 -19 97 -7 0 6 -5 11 -11
11 -6 0 1 21 16 46 17 29 28 65 31 102 8 92 12 102 37 102 13 0 36 -13 52 -30z
m2902 -25 c33 -14 37 -14 49 2 23 33 23 8 0 -41 l-23 -48 -13 31 c-7 17 -15
31 -19 31 -3 0 -17 9 -31 20 -30 23 -13 26 37 5z m-23 -46 c29 -23 36 -55 10
-45 -9 3 -19 6 -23 6 -5 0 -21 10 -36 22 -26 20 -26 22 -9 29 28 11 29 11 58
-12z m-2768 -31 c11 -18 5 -71 -8 -79 -30 -19 -54 24 -38 67 10 26 34 32 46
12z m2501 -14 c55 -41 56 -106 1 -147 -35 -26 -57 -19 -138 41 -80 60 -162 92
-258 99 -40 3 -70 8 -68 10 10 10 152 19 288 19 133 -1 149 -3 175 -22z m878
-16 c-4 -49 -15 -111 -20 -117 -7 -6 -6 110 1 136 9 33 22 19 19 -19z m-2788
5 c-9 -9 -20 -13 -24 -9 -4 4 -1 11 7 16 25 16 35 11 17 -7z m-227 -2 c0 -11
-58 -61 -71 -61 -16 0 -9 20 16 45 24 25 55 33 55 16z m168 -8 c-4 -22 -22
-20 -26 1 -2 10 3 16 13 16 10 0 15 -7 13 -17z m96 -4 c-10 -11 -28 -25 -39
-30 -11 -6 -4 4 15 21 40 35 52 39 24 9z m2110 0 c14 -11 26 -26 26 -32 0 -7
15 -42 33 -79 29 -60 31 -68 15 -68 -37 0 -31 -86 12 -170 34 -66 60 -164 67
-247 3 -46 3 -83 0 -83 -16 0 -39 68 -47 138 -5 49 -20 102 -39 145 -42 94
-50 129 -52 231 -2 114 -8 136 -49 164 -27 18 -29 22 -13 22 11 0 32 -9 47
-21z m-486 -59 c34 -16 62 -34 62 -40 0 -6 -13 -4 -32 6 -118 61 -298 56 -365
-11 -36 -36 -41 -61 -18 -105 16 -31 31 -38 37 -19 2 6 26 0 60 -16 72 -33
195 -44 253 -22 22 8 49 18 60 21 l20 8 -20 -17 c-46 -38 -140 -78 -185 -78
-49 0 -113 27 -144 62 -12 13 -26 19 -37 16 -25 -8 -79 50 -79 85 0 34 43 88
95 120 73 45 183 41 293 -10z m-1642 -5 c-11 -8 -25 -16 -30 -16 -85 -9 -94 2
-16 19 63 14 68 13 46 -3z m2416 -41 c-6 -35 -12 -29 -12 14 0 23 3 32 9 24 4
-7 6 -24 3 -38z m-3112 22 c0 -18 -63 -86 -79 -86 -16 0 -1 28 38 68 32 35 41
39 41 18z m3204 -28 c13 -24 32 -70 41 -103 31 -109 61 -161 118 -202 29 -21
63 -49 77 -63 14 -14 50 -38 82 -53 106 -52 122 -129 47 -225 -27 -35 -33 -79
-15 -107 19 -30 63 -36 51 -7 -17 39 -17 69 1 76 28 11 38 -10 45 -87 7 -90
-4 -105 -82 -113 l-54 -6 53 26 c53 26 61 46 18 46 -13 0 -34 8 -47 18 -18 15
-22 28 -22 69 1 28 4 60 8 72 12 38 -4 22 -25 -25 -22 -52 -25 -76 -10 -105 6
-10 7 -19 2 -19 -18 0 -32 54 -32 128 0 42 -4 94 -9 115 -11 48 6 58 48 28 35
-25 42 -26 34 -6 -9 25 -54 43 -113 46 -73 3 -101 14 -140 52 -71 69 -110 167
-110 275 0 45 -3 55 -20 59 -23 6 -25 18 -5 53 l13 25 7 -27 c4 -15 13 -32 21
-39 19 -15 18 9 -1 81 -17 63 -16 60 -10 60 2 0 15 -19 29 -42z m-849 -19 c22
-8 40 -18 40 -24 0 -5 -18 -19 -40 -30 -60 -30 -174 -27 -239 5 -97 48 -62 72
94 66 58 -2 123 -10 145 -17z m-2284 -12 c-13 -13 -26 -3 -16 12 3 6 11 8 17
5 6 -4 6 -10 -1 -17z m3433 -73 c19 -75 20 -113 1 -61 -18 48 -35 141 -25 130
5 -4 16 -36 24 -69z m90 -93 c2 -18 1 -45 -3 -59 -6 -22 -9 -17 -24 39 -41
153 -43 188 -7 113 17 -33 32 -75 34 -93z m-3584 115 c0 -26 -44 -69 -94 -92
-28 -13 -57 -24 -63 -24 -36 0 8 51 86 101 49 32 71 36 71 15z m2095 -12 c32
-13 84 -22 148 -26 20 -1 37 -5 37 -9 0 -13 -145 3 -199 22 -62 21 -95 45 -46
33 17 -4 44 -13 60 -20z m-1620 -4 c-5 -14 -2 -20 9 -20 10 0 16 -9 16 -21 0
-43 -35 -92 -123 -172 -141 -127 -171 -157 -164 -163 3 -3 25 12 50 35 47 44
153 111 174 111 21 0 15 -21 -7 -27 -11 -3 -21 -9 -21 -14 -1 -5 -2 -14 -3
-20 0 -6 -44 -47 -96 -90 -64 -53 -106 -81 -130 -85 -98 -18 -174 -80 -218
-176 -29 -65 -61 -98 -94 -98 -24 0 -23 8 4 30 20 15 23 31 29 119 10 150 49
207 154 226 83 16 146 65 198 155 28 49 97 121 97 101 0 -20 -20 -52 -64 -106
-73 -89 -74 -90 -51 -77 73 39 122 105 160 214 9 26 25 58 36 72 25 32 53 35
44 6z m-659 -12 c-4 -13 -14 -61 -22 -108 -16 -87 -25 -107 -42 -96 -15 9 -33
95 -31 149 3 58 19 77 66 77 32 0 35 -2 29 -22z m3207 -162 c33 -60 26 -73
-14 -26 -40 47 -78 127 -85 176 -6 42 -6 43 99 -150z m-152 -48 c11 -21 16
-38 11 -38 -9 0 -62 92 -62 106 1 13 28 -25 51 -68z m-2385 34 c-8 -9 -19 -13
-22 -9 -10 9 16 38 28 31 6 -4 4 -13 -6 -22z m3152 -44 l-13 -23 -3 23 c-4 28
21 66 26 39 2 -9 -3 -26 -10 -39z m-615 -25 c10 -12 22 -48 28 -80 6 -32 17
-70 25 -85 18 -35 18 -38 -5 -38 -22 0 -27 11 -36 94 -8 72 -16 92 -49 130
-14 16 -26 31 -26 33 0 8 47 -32 63 -54z m-223 -55 c0 -18 -17 -6 -34 25 l-19
32 26 -24 c15 -14 27 -28 27 -33z m-2110 27 c0 -18 -62 -119 -79 -129 -19 -12
-12 30 8 48 10 9 26 34 36 56 18 41 35 52 35 25z m-780 -24 c0 -5 -13 -19 -30
-31 -21 -15 -32 -33 -36 -60 -4 -22 -12 -47 -19 -56 -10 -14 -9 -22 1 -42 10
-19 10 -29 1 -43 -19 -31 -39 0 -40 62 0 43 5 64 29 104 33 54 94 97 94 66z
m3728 2 c-1 -5 2 -24 6 -43 4 -19 3 -53 -2 -75 l-10 -40 -1 40 c-1 22 -8 57
-15 77 -7 21 -11 40 -8 43 8 8 32 6 30 -2z m-3143 -32 c-3 -5 -19 -12 -36 -16
-22 -5 -28 -11 -24 -24 3 -10 -2 -24 -12 -33 -27 -24 -101 -60 -115 -56 -20 7
60 85 115 112 52 26 83 33 72 17z m2283 -27 c-10 -10 -28 6 -28 24 0 15 1 15
17 -1 9 -9 14 -19 11 -23z m230 -42 c2 -44 1 -46 -13 -28 -15 20 -21 77 -8 89
11 12 19 -11 21 -61z m153 -37 c20 -7 27 -25 9 -25 -26 0 -71 57 -76 95 l-5
40 26 -52 c14 -29 35 -55 46 -58z m-3243 48 c-2 -10 -11 -19 -21 -21 -16 -3
-17 -1 -7 17 13 25 33 28 28 4z m578 -35 c-36 -61 -67 -94 -96 -103 -14 -4
-52 -22 -85 -40 -46 -26 -76 -34 -130 -38 -79 -6 -120 -19 -152 -49 -28 -26
-38 -20 -17 10 19 28 59 48 104 55 46 6 80 20 149 61 32 18 74 39 95 46 20 6
62 34 93 61 31 27 58 47 60 45 3 -3 -7 -24 -21 -48z m2258 37 c3 -9 0 -15 -9
-15 -8 0 -15 7 -15 15 0 8 4 15 9 15 5 0 11 -7 15 -15z m-2057 -90 c33 -29 56
-61 68 -92 10 -26 22 -54 28 -61 6 -7 9 -33 9 -57 -2 -47 9 -58 27 -27 8 12 9
4 4 -30 -5 -40 -3 -48 11 -48 9 0 16 -7 16 -15 0 -25 -18 -17 -55 23 -42 44
-52 75 -35 107 11 20 9 31 -13 77 -14 29 -36 66 -50 83 l-25 30 3 -27 c5 -45
15 -67 36 -73 10 -4 19 -11 19 -16 0 -13 -34 6 -83 44 -22 17 -45 27 -56 24
-15 -3 -17 0 -14 17 11 49 12 50 39 25 l26 -24 -7 30 c-4 17 -8 36 -11 43 -7
23 13 12 63 -33z m2045 -7 c2 -15 -1 -28 -7 -29 -16 -3 -39 46 -31 66 6 16 9
17 21 4 7 -8 15 -26 17 -41z m-2496 -14 c-26 -19 -127 -56 -134 -49 -7 7 -7 7
73 42 70 30 97 34 61 7z m2694 1 c-10 -12 -10 -15 3 -15 8 0 20 7 27 15 19 23
78 18 140 -11 36 -17 56 -21 58 -14 3 7 16 1 32 -15 41 -39 55 -27 24 19 l-27
39 26 -19 c27 -19 57 -71 57 -96 0 -8 16 -40 35 -73 20 -32 34 -59 32 -61 -2
-2 -27 28 -56 67 -67 90 -99 105 -239 111 -58 3 -108 10 -114 16 -7 7 -24 12
-38 12 -45 0 -43 14 2 26 24 6 45 12 47 13 2 0 -2 -6 -9 -14z m700 -19 c0 -14
-5 -28 -10 -31 -13 -8 -24 20 -16 40 9 24 26 17 26 -9z m-1550 -56 c0 -5 37
-33 81 -62 71 -46 79 -53 56 -56 -14 -2 -48 8 -76 22 -28 14 -57 26 -66 26
-20 0 -29 23 -21 55 6 24 26 36 26 15z m965 -5 c50 0 97 -5 106 -10 9 -6 63
-54 120 -108 111 -105 133 -121 190 -131 35 -6 79 -38 79 -56 0 -14 -22 -12
-66 6 -27 11 -50 14 -83 8 -59 -10 -59 -10 -128 31 -31 20 -76 40 -98 46 -127
32 -176 51 -164 64 3 3 19 1 35 -5 16 -5 61 -11 101 -14 50 -2 83 -10 109 -25
37 -22 52 -22 39 -1 -12 19 -67 38 -141 50 -106 16 -125 21 -118 31 3 5 43 9
90 9 49 0 84 4 84 10 0 6 -10 10 -22 11 -29 1 -91 6 -100 8 -5 0 -8 6 -8 12 0
7 19 10 55 7 54 -4 72 3 38 17 -10 3 -63 9 -118 11 -125 6 -145 10 -145 30 0
13 6 14 28 8 15 -5 68 -9 117 -9z m-3195 -2 c-1 -27 -56 -61 -72 -45 -16 16
-2 40 24 45 39 7 48 7 48 0z m590 -3 c0 -10 -151 -90 -170 -90 -27 0 15 41 72
69 62 31 98 39 98 21z m2236 -25 c-3 -8 -15 -15 -27 -15 l-22 0 24 26 c23 24
37 19 25 -11z m123 -20 c46 -50 57 -83 13 -39 -16 16 -41 37 -55 47 -29 19
-35 37 -13 37 7 0 32 -20 55 -45z m-2139 18 c35 -20 50 -47 53 -95 2 -24 17
-55 46 -93 23 -31 40 -63 37 -70 -3 -8 4 -21 15 -28 17 -13 18 -16 4 -27 -12
-10 -19 -10 -27 -2 -22 22 -34 13 -30 -21 7 -60 -63 -93 -79 -36 -11 42 4 53
30 23 16 -19 26 -23 33 -16 8 8 -1 29 -30 73 -43 64 -50 94 -32 146 13 36 3
65 -39 113 -46 52 -37 67 19 33z m-30 -66 c29 -47 7 -61 -31 -19 -35 39 -41
79 -8 62 11 -6 29 -25 39 -43z m-781 7 c-22 -23 -59 -33 -59 -16 0 11 30 38
50 44 28 9 32 -4 9 -28z m2731 7 c0 -11 -30 -19 -48 -14 -6 3 -10 9 -6 14 7
12 54 12 54 0z m150 -1 c0 -5 -7 -6 -17 -3 -19 8 -15 -1 34 -65 48 -63 43 -82
-18 -84 -17 -1 -35 5 -39 12 -12 20 -3 29 20 23 25 -7 25 -6 -1 51 -11 26 -18
54 -15 62 6 16 36 19 36 4z m-2500 -10 c0 -6 -28 -10 -62 -10 -40 0 -78 -7
-105 -20 -24 -10 -45 -15 -48 -11 -5 9 22 35 45 44 27 10 170 7 170 -3z m1260
4 c0 -4 -18 -26 -40 -50 -22 -24 -40 -49 -40 -55 0 -7 -15 -30 -33 -53 -19
-23 -37 -48 -41 -56 -6 -15 -4 5 9 85 l6 40 -20 -23 c-31 -35 -48 -114 -43
-189 2 -18 8 -23 28 -23 l26 0 -19 -32 c-10 -17 -24 -33 -32 -36 -8 -3 -11 0
-8 5 4 6 -3 21 -14 34 -17 20 -20 36 -19 104 3 117 2 121 -12 107 -12 -12 -17
-95 -18 -264 0 -21 -4 -38 -10 -38 -12 0 -27 57 -36 135 -6 57 0 82 34 147 2
4 -13 1 -33 -8 -36 -15 -36 -15 -33 8 2 13 10 24 18 24 8 1 23 2 33 3 9 0 17
8 17 17 0 11 -6 14 -17 10 -16 -5 -16 -4 0 7 10 7 44 31 74 54 66 51 90 46 37
-8 -44 -45 -40 -61 8 -28 34 25 157 89 171 89 4 0 7 -3 7 -6z m1169 -20 c36
-45 25 -62 -14 -24 -19 19 -35 38 -35 42 0 18 30 7 49 -18z m-604 -12 c57 -40
66 -63 63 -165 -4 -137 -20 -118 -52 64 -4 22 -23 55 -47 83 -32 36 -37 46
-22 46 10 -1 36 -13 58 -28z m-1741 -3 c-7 -12 -44 -12 -44 0 0 5 6 11 13 14
17 6 38 -3 31 -14z m1847 -21 c43 -38 52 -65 51 -167 0 -148 0 -149 -16 -129
-7 10 -14 46 -15 80 -1 38 -8 69 -17 79 -8 8 -14 31 -14 51 0 19 -11 55 -23
81 -25 49 -18 50 34 5z m683 -76 c17 -49 13 -73 -4 -26 -11 31 -46 99 -64 125
-6 8 3 0 21 -19 17 -19 39 -54 47 -80z m-834 24 c15 -40 12 -86 -5 -93 -24 -9
-30 4 -30 65 0 32 -4 68 -9 82 l-8 25 21 -26 c11 -15 25 -39 31 -53z m-2213
36 c-10 -10 -17 -29 -17 -41 l0 -22 31 22 c29 20 119 53 119 43 0 -2 -12 -27
-26 -55 -15 -27 -23 -53 -19 -57 3 -4 24 13 46 38 22 27 39 39 39 30 0 -9 -6
-22 -12 -29 -9 -8 -12 -43 -11 -109 1 -79 -1 -91 -9 -67 -13 37 -37 65 -55 65
-37 0 -41 109 -5 129 9 5 13 13 9 17 -4 5 -28 -3 -52 -16 -35 -19 -46 -21 -58
-11 -20 16 -14 61 9 78 24 17 31 8 11 -15z m797 6 c20 -32 24 -63 7 -63 -20 0
-55 51 -48 69 9 22 24 20 41 -6z m1033 -10 c44 -43 42 -54 -5 -24 l-38 24 -32
-29 c-32 -29 -56 -36 -66 -21 -8 13 32 52 68 68 40 17 35 19 73 -18z m791 -97
c79 -80 82 -85 76 -119 -8 -43 -11 -67 -13 -108 0 -16 -8 -39 -17 -50 -15 -18
-15 -18 -9 3 17 61 -1 220 -23 199 -4 -4 -7 -35 -7 -68 0 -40 -4 -63 -12 -65
-9 -3 -13 10 -13 46 0 27 -4 53 -10 56 -5 3 -7 19 -3 35 8 40 -34 108 -85 139
-34 21 -38 27 -29 42 11 17 13 17 37 -4 14 -12 62 -60 108 -106z m-947 72
c-18 -33 -20 -35 -21 -14 0 23 28 66 37 57 3 -2 -5 -21 -16 -43z m-1380 -2
c-41 -51 -69 -119 -76 -184 -10 -84 -14 -95 -42 -121 -39 -36 -21 -44 27 -12
22 14 40 24 40 21 0 -17 -38 -59 -69 -75 l-36 -19 36 -1 c22 0 43 8 57 20 25
24 24 16 27 145 3 117 20 170 71 215 33 29 86 41 98 22 3 -5 -4 -21 -15 -38
-62 -89 -99 -193 -114 -316 -10 -81 -70 -134 -163 -145 -26 -3 -62 -11 -79
-19 -18 -7 -33 -10 -34 -6 0 4 -2 14 -3 22 -7 31 15 61 59 82 54 26 58 38 10
32 -49 -6 -44 10 18 49 34 22 60 48 71 71 15 33 16 40 1 97 l-16 62 29 36 c31
39 107 101 124 101 5 0 -4 -17 -21 -39z m1863 17 c10 -41 7 -48 -24 -48 -34 0
-35 4 -17 43 15 33 33 35 41 5z m-98 3 c-4 -5 -26 -22 -51 -38 -64 -40 -61
-57 6 -29 35 14 79 7 79 -13 0 -18 -58 -51 -119 -66 -65 -17 -117 -11 -146 19
-8 8 -23 13 -33 11 -9 -2 -39 -8 -66 -15 -80 -18 -81 4 -2 41 61 29 74 31 137
26 69 -6 82 0 54 23 -24 20 -18 26 24 22 23 -2 50 3 67 12 32 17 58 21 50 7z
m-1508 -13 c10 -10 17 -10 32 0 16 10 20 10 20 0 0 -27 -39 -75 -100 -122
l-63 -50 51 70 c46 62 54 95 17 64 -22 -18 -20 8 2 32 19 21 25 22 41 6z m197
-29 c9 -17 14 -33 11 -36 -4 -4 -36 49 -36 62 0 13 11 2 25 -26z m1724 -6 c20
-51 31 -117 31 -193 0 -83 -15 -86 -25 -5 -13 115 -17 135 -26 140 -11 8 -12
85 0 85 5 0 14 -12 20 -27z m-1235 -5 c-4 -7 -15 -24 -25 -38 -21 -32 -36 -87
-43 -169 -6 -66 -11 -80 -23 -67 -10 10 -10 130 0 179 9 41 60 107 84 107 8 0
11 -5 7 -12z m2059 -49 c56 -2 101 -11 124 -26 19 -13 26 -14 33 -4 6 10 15 9
41 -5 26 -13 54 -17 112 -16 50 1 76 -2 72 -8 -3 -5 -20 -10 -36 -10 -21 0
-39 -10 -59 -31 l-28 -32 -35 22 c-19 11 -44 21 -56 21 -12 0 -20 4 -17 9 14
23 -38 39 -132 40 -41 1 -54 5 -59 19 -4 9 -15 28 -25 41 -29 39 -20 49 13 14
16 -18 40 -33 52 -34z m112 31 c4 -6 -13 -10 -45 -10 -32 0 -49 4 -45 10 3 6
24 10 45 10 21 0 42 -4 45 -10z m413 -32 c4 -31 -24 -91 -38 -83 -11 7 -13 58
-4 93 9 31 38 24 42 -10z m-1262 -82 c4 -35 3 -48 -4 -41 -6 6 -13 39 -17 75
-7 79 11 49 21 -34z m-398 57 c2 -9 -7 -13 -27 -13 -30 0 -39 9 -24 24 11 10
46 3 51 -11z m857 6 c4 -6 5 -12 2 -15 -7 -7 -37 7 -37 17 0 13 27 11 35 -2z
m-2412 -30 c-30 -51 -111 -127 -163 -154 -32 -16 -50 -32 -52 -47 -6 -42 -28
-32 -28 14 1 46 38 142 39 101 1 -12 5 -24 9 -27 13 -8 104 48 157 98 28 25
51 45 53 46 2 0 -5 -14 -15 -31z m180 -6 c8 -16 12 -33 10 -40 -2 -6 1 -14 6
-18 16 -10 13 -22 -11 -46 l-23 -22 23 6 c12 3 22 4 22 2 0 -2 -13 -24 -30
-48 -16 -25 -30 -52 -30 -60 0 -33 -93 -89 -120 -72 -15 9 -2 25 15 19 17 -7
55 50 55 82 0 11 12 31 26 43 24 21 26 27 21 96 -2 41 -2 77 1 80 11 11 22 4
35 -22z m-243 -2 c0 -5 -16 -18 -35 -30 -41 -24 -47 -12 -7 18 30 22 42 26 42
12z m2709 0 c7 -5 9 -11 4 -14 -6 -4 -19 0 -29 8 -15 11 -16 14 -4 15 8 0 21
-4 29 -9z m-3183 -33 c17 -12 37 -31 44 -42 10 -16 9 -22 -6 -34 -29 -22 -84
-43 -94 -37 -11 7 -13 77 -4 113 8 28 19 28 60 0z m664 -25 c0 -19 -48 -93
-61 -93 -6 0 1 21 16 46 19 32 25 53 21 72 -6 26 -6 26 9 8 8 -11 15 -26 15
-33z m488 -63 c0 -37 -1 -41 -8 -20 -11 36 -11 112 0 85 5 -11 8 -40 8 -65z
m595 73 c-7 -2 -19 -2 -25 0 -7 3 -2 5 12 5 14 0 19 -2 13 -5z m237 -2 c0 -6
21 -13 48 -16 121 -17 145 -42 87 -92 -26 -22 -52 -34 -84 -38 -25 -4 -57 -9
-71 -11 -14 -2 -80 -4 -147 -5 -120 0 -124 1 -204 36 -88 40 -110 42 -52 3 83
-53 143 -71 238 -72 196 -1 323 20 383 63 26 18 31 19 42 6 7 -8 19 -15 26
-15 8 0 14 -10 14 -25 0 -16 -6 -25 -15 -25 -8 0 -15 5 -15 10 0 6 -7 10 -15
10 -13 0 -14 -4 -5 -20 13 -25 -2 -26 -54 -5 -38 16 -39 15 -36 -27 2 -33 -15
-37 -32 -8 -30 48 -37 12 -11 -59 17 -49 12 -87 -10 -78 -51 21 -50 21 -36 -1
16 -26 85 -57 174 -78 136 -33 186 -73 192 -156 l4 -53 -28 55 c-22 44 -37 59
-72 76 -38 19 -131 44 -221 61 -32 6 -107 81 -115 116 -5 20 -2 33 10 47 17
19 15 50 -4 50 -5 0 -13 -10 -16 -22 -15 -47 -38 -88 -50 -88 -8 0 -16 -13
-20 -30 -8 -38 -36 -42 -29 -4 3 15 13 43 24 64 22 44 33 90 20 90 -11 0 -21
-15 -41 -64 -19 -48 -43 -66 -61 -48 -9 9 -7 17 11 36 12 13 18 26 13 30 -5 3
-22 -10 -39 -28 -25 -28 -35 -33 -64 -30 -66 8 -104 15 -135 26 -35 12 -94 -4
-94 -26 0 -18 22 -36 42 -36 11 0 30 -11 43 -24 13 -13 46 -29 73 -35 90 -22
161 -106 162 -192 0 -24 5 -39 15 -43 13 -5 14 -10 4 -27 -14 -28 -24 -14 -34
51 -7 47 -37 94 -90 144 -43 41 -72 59 -85 51 -18 -11 -11 -23 21 -34 31 -11
42 -21 76 -69 15 -22 46 -132 39 -140 -2 -2 -13 12 -25 31 -35 58 -76 69 -280
82 -46 3 -87 8 -91 10 -15 9 2 44 41 89 32 36 48 46 84 52 62 9 58 28 -4 22
-29 -3 -62 -14 -82 -29 -38 -26 -31 -13 28 51 23 25 31 41 26 55 -11 36 -12
66 -2 128 12 75 33 115 67 130 15 6 40 22 56 34 27 23 32 23 175 18 135 -6
148 -5 176 14 33 21 55 26 55 12z m-948 -48 c-5 -51 31 -104 78 -117 44 -12
100 -52 100 -72 0 -8 9 -27 20 -42 22 -30 18 -62 -7 -62 -10 0 -14 7 -10 20 7
26 -40 66 -93 80 -22 6 -40 13 -40 16 0 4 11 3 25 0 46 -12 26 12 -26 30 -28
10 -55 27 -61 38 -13 25 -12 100 2 126 15 28 16 26 12 -17z m1633 -17 c2 -20
-1 -38 -6 -41 -5 -4 -9 15 -9 41 0 54 10 54 15 0z m382 -5 c16 -21 16 -31 -1
-31 -15 0 -66 55 -66 72 0 12 49 -18 67 -41z m213 20 c14 -8 40 -27 58 -44 34
-33 37 -32 22 7 -12 33 -8 33 48 -6 65 -45 106 -57 190 -58 40 0 82 -5 93 -10
21 -12 49 -60 49 -86 0 -14 -7 -11 -32 13 -42 41 -76 53 -146 53 -56 0 -66 4
-136 54 -37 26 -42 15 -9 -19 40 -40 108 -67 177 -71 60 -4 86 -16 86 -39 0
-7 7 -15 15 -19 31 -12 11 -100 -29 -128 -22 -15 -29 -7 -11 12 33 37 3 105
-61 138 -34 18 -104 31 -110 21 -6 -10 0 -13 62 -29 43 -10 94 -52 94 -76 0
-18 -18 -18 -36 1 -8 8 -34 19 -57 25 -137 36 -147 41 -211 101 -35 32 -71 75
-80 93 -9 19 -32 43 -51 55 -19 11 -35 24 -35 29 0 12 78 -1 110 -17z m-475
-32 c28 -29 43 -48 34 -43 -26 15 -99 78 -99 86 0 18 18 6 65 -43z m90 21 c17
-19 17 -20 0 -26 -19 -8 -49 22 -39 37 8 14 19 11 39 -11z m60 0 c-3 -5 -13
-10 -21 -10 -8 0 -12 5 -9 10 3 6 13 10 21 10 8 0 12 -4 9 -10z m-1970 -28 c2
-12 0 -24 -6 -27 -5 -4 -9 8 -9 26 0 35 8 35 15 1z m-39 -7 c2 -11 6 -42 9
-70 l7 -50 -20 25 c-11 13 -24 38 -28 55 l-7 30 -4 -27 c-2 -15 5 -49 17 -75
24 -54 28 -129 10 -174 -13 -31 -47 -43 -36 -12 4 9 9 35 12 58 5 35 1 47 -35
97 -69 95 -49 171 43 165 21 -1 30 -8 32 -22z m1564 16 c0 -16 -12 -41 -20
-41 -4 0 -5 11 -2 25 4 23 22 36 22 16z m-2020 -42 c0 -6 7 -9 15 -5 8 3 15 1
15 -3 0 -11 -74 -71 -87 -71 -5 0 -28 -16 -52 -36 -23 -20 -44 -34 -46 -32
-10 10 57 99 96 128 45 32 59 37 59 19z m2558 -8 c3 -8 -1 -12 -9 -9 -7 2 -15
10 -17 17 -3 8 1 12 9 9 7 -2 15 -10 17 -17z m-214 -26 c41 -19 86 -49 101
-66 34 -41 68 -109 59 -117 -4 -4 -9 -2 -11 5 -2 7 -37 28 -78 48 -48 23 -84
48 -104 74 -29 36 -56 91 -45 91 2 0 38 -16 78 -35z m76 10 c16 -19 1 -19 -24
0 -16 12 -17 15 -4 15 8 0 21 -7 28 -15z m-2140 -3 c0 -20 -63 -93 -100 -118
-53 -35 -63 -24 -12 12 22 16 52 48 67 71 25 40 45 55 45 35z m1556 -47 c-9
-23 -26 -9 -26 23 0 24 1 25 16 10 10 -9 14 -24 10 -33z m337 -18 c-6 -74 1
-84 73 -92 27 -3 57 -8 67 -11 31 -9 63 -94 36 -94 -6 0 -33 16 -59 35 -27 20
-63 40 -82 47 -49 16 -68 37 -68 74 0 26 27 104 36 104 1 0 -1 -28 -3 -63z
m-272 36 c7 -81 3 -105 -12 -82 -12 19 -11 99 1 99 6 0 11 -8 11 -17z m-1851
3 c0 -2 -12 -12 -27 -21 l-28 -18 19 21 c17 20 36 29 36 18z m1955 -15 c-8
-13 -35 -15 -35 -2 0 5 8 11 18 13 21 5 26 2 17 -11z m92 -109 c20 -24 44 -40
81 -51 62 -19 122 -64 122 -91 0 -27 -10 -25 -48 10 -32 29 -48 37 -144 78
-25 11 -52 31 -59 44 -7 12 -12 24 -11 26 6 8 0 22 -8 22 -15 0 -3 -70 16 -91
18 -20 113 -59 144 -59 35 0 21 -18 -17 -24 -86 -15 -115 -15 -136 -5 -29 15
-37 28 -37 59 0 14 -6 35 -14 46 -19 27 -10 65 26 109 l31 37 13 -37 c7 -21
25 -53 41 -73z m163 30 c-31 -5 -60 16 -60 44 l0 25 40 -33 c33 -27 36 -34 20
-36z m-2474 8 c-14 -22 -31 -40 -37 -40 -5 0 4 21 21 46 39 56 54 50 16 -6z
m2162 15 c-1 -19 -5 -32 -8 -29 -8 9 -7 64 2 64 5 0 8 -16 6 -35z m682 22 c0
-15 -47 -67 -60 -67 -17 0 -11 17 16 49 27 33 44 40 44 18z m224 -57 c54 -46
77 -60 102 -60 67 0 95 -12 119 -51 16 -25 34 -39 55 -44 26 -6 30 -11 30 -38
0 -41 -9 -54 -43 -62 -24 -6 -34 -1 -74 40 -66 66 -87 79 -178 110 -74 25
-126 55 -98 55 7 0 14 -4 18 -9 3 -5 49 -19 103 -31 53 -12 111 -26 127 -31
28 -8 29 -8 10 6 -18 15 -70 32 -124 42 -56 10 -95 43 -130 111 -21 39 10 26
83 -38z m-2874 3 c-31 -35 -32 -37 -12 -44 34 -13 22 -46 -40 -111 -10 -10
-18 -24 -18 -32 0 -8 -11 -27 -24 -43 -45 -55 -56 -88 -54 -165 3 -63 -1 -81
-25 -130 -23 -47 -33 -58 -60 -63 -18 -4 -41 -9 -52 -11 -14 -4 -12 0 8 13 40
26 45 59 17 108 -65 113 -80 149 -80 196 0 97 40 145 188 227 193 108 200 110
152 55z m280 2 c0 -8 -9 -19 -20 -25 -23 -12 -25 -7 -10 21 13 22 30 25 30 4z
m115 -14 c5 -22 -1 -43 -22 -83 l-28 -53 -3 33 c-2 19 4 44 12 58 9 13 17 35
18 49 3 34 15 32 23 -4z m221 -37 l5 -39 -14 35 c-32 80 -32 77 -13 59 9 -8
19 -33 22 -55z m84 41 c10 -12 10 -15 -4 -15 -21 0 -20 -6 5 -31 16 -16 18
-23 9 -34 -26 -32 -59 18 -46 70 7 29 18 32 36 10z m-359 -28 c-8 -8 -11 -7
-11 4 0 20 13 34 18 19 3 -7 -1 -17 -7 -23z m229 -11 c0 -33 31 -61 85 -76 29
-8 63 -28 86 -50 33 -31 39 -43 39 -78 0 -22 4 -44 10 -47 9 -6 6 -146 -4
-183 -2 -9 -7 -30 -11 -46 -12 -56 -23 -6 -18 83 6 124 -7 146 -111 187 -57
22 -82 38 -88 54 -12 31 -22 155 -14 175 8 22 26 9 26 -19z m1293 6 c28 -9 50
-21 47 -27 -9 -18 -79 -9 -110 13 -37 28 -40 27 -40 -3 0 -14 -4 -25 -10 -25
-14 0 -32 40 -26 57 7 18 55 13 139 -15z m-1663 -1 c0 -5 -9 -11 -21 -14 -16
-4 -18 -3 -8 9 13 16 29 19 29 5z m1500 -16 c7 -14 35 -39 62 -56 27 -18 47
-33 45 -36 -3 -2 -23 -1 -46 3 -33 5 -45 13 -52 31 -5 14 -16 31 -24 39 -16
17 -20 44 -7 44 5 0 15 -11 22 -25z m-1960 6 c0 -10 -24 -21 -48 -21 -13 0
-12 3 4 15 21 16 44 19 44 6z m548 -28 c-4 -19 -55 -36 -76 -24 -12 7 -10 11
9 25 32 22 72 21 67 -1z m848 4 c4 -4 -8 -7 -27 -7 -23 0 -30 3 -20 9 15 10
37 9 47 -2z m847 -22 c-7 -21 -13 -19 -13 6 0 11 4 18 10 14 5 -3 7 -12 3 -20z
m-664 -24 c48 -35 91 -90 91 -118 0 -22 -5 -18 -38 33 -28 44 -52 66 -90 87
-29 16 -52 30 -52 32 0 9 62 -15 89 -34z m-1713 14 c15 -12 16 -16 5 -24 -22
-14 -81 7 -81 30 0 15 55 10 76 -6z m1207 -15 c14 -11 33 -41 43 -66 16 -41
16 -47 1 -61 -14 -14 -16 -12 -26 23 -6 22 -26 55 -46 74 -19 19 -35 38 -35
42 0 15 37 8 63 -12z m-625 -7 c32 -14 34 -17 15 -20 -24 -5 -63 12 -63 27 0
13 5 13 48 -7z m2439 2 c-11 -7 -25 -11 -33 -8 -25 10 -15 23 19 23 30 -1 31
-2 14 -15z m203 -5 c79 -40 150 -125 150 -177 0 -10 -14 -56 -30 -103 -38
-109 -38 -134 0 -172 36 -35 38 -43 8 -27 -29 16 -56 47 -74 86 -18 41 -32
293 -16 293 6 0 16 -26 22 -57 22 -117 30 -133 25 -53 -6 86 -30 135 -94 193
-47 42 -46 45 9 17z m-1286 -52 c-8 -12 -54 31 -54 51 0 10 9 6 30 -14 16 -15
27 -32 24 -37z m1724 38 c4 -20 -26 -58 -39 -50 -13 8 -11 48 3 62 16 16 32
10 36 -12z m-2960 -15 c3 -9 -2 -9 -22 0 -14 7 -26 16 -26 20 0 12 43 -6 48
-20z m2321 -21 c-22 -14 -34 2 -13 17 13 10 20 10 23 2 2 -6 -3 -15 -10 -19z
m-3008 -29 c-12 -16 -21 -35 -22 -43 0 -7 -4 -3 -9 10 -12 28 3 69 27 74 26 5
27 -8 4 -41z m829 28 c-7 -11 -14 -18 -17 -15 -8 8 5 36 17 36 7 0 7 -6 0 -21z
m1473 5 c55 -18 99 -57 91 -78 -3 -8 1 -25 10 -38 18 -26 21 -74 6 -114 -14
-35 -85 -93 -117 -94 -24 0 -13 16 22 33 37 18 48 43 15 34 -26 -7 -25 -1 6
36 22 26 25 38 22 78 -6 54 -33 93 -93 132 -45 30 -30 34 38 11z m497 -1 c0
-5 -5 -15 -10 -23 -8 -12 -10 -11 -10 8 0 12 5 22 10 22 6 0 10 -3 10 -7z
m-2155 -12 c6 -11 -33 -26 -43 -16 -4 3 0 10 8 15 19 12 27 12 35 1z m1240
-11 c10 -11 14 -20 8 -20 -5 0 -18 9 -28 20 -10 11 -14 20 -8 20 5 0 18 -9 28
-20z m1318 -38 c10 -23 17 -52 16 -65 0 -17 -5 -13 -19 18 -21 48 -37 115 -23
100 6 -5 17 -29 26 -53z m-517 6 c19 -21 34 -43 34 -50 0 -7 -7 -2 -16 10 -20
29 -66 52 -104 52 -38 0 -39 -16 0 -25 31 -7 80 -41 80 -55 0 -5 -16 -2 -35 6
-19 7 -50 14 -69 14 -19 0 -47 5 -63 11 -27 10 -83 56 -83 69 0 3 50 5 111 5
l110 0 35 -37z m-2263 19 c-23 -38 -69 -97 -76 -97 -9 0 24 52 56 88 23 25 32
29 20 9z m301 -3 c9 -24 7 -28 -9 -14 -17 14 -20 30 -6 30 5 0 12 -7 15 -16z
m213 -29 c26 -20 58 -38 72 -42 34 -8 84 -33 93 -47 15 -22 7 -54 -17 -70 -16
-11 -25 -26 -25 -43 0 -26 0 -26 -21 -7 -15 14 -22 15 -28 6 -4 -7 -21 -16
-36 -21 -20 -5 -31 -16 -37 -37 -5 -16 -23 -46 -41 -67 -31 -36 -35 -38 -50
-22 -23 23 -21 42 6 49 12 3 37 27 55 52 18 25 45 50 60 55 30 12 30 12 -48
62 -38 24 -83 84 -74 98 3 5 23 -5 45 -23 21 -17 42 -29 45 -26 3 4 -8 25 -25
49 -28 38 -39 69 -25 69 3 0 26 -16 51 -35z m974 10 c12 4 21 1 25 -9 9 -22
41 -20 47 4 4 16 10 18 35 11 16 -5 47 -17 68 -27 l39 -19 -53 -3 c-62 -4 -66
-22 -9 -34 44 -9 83 -33 92 -56 5 -13 1 -12 -17 4 -33 30 -47 33 -108 23 -30
-5 -75 -12 -100 -15 -42 -5 -44 -5 -25 9 19 15 19 16 -17 31 -41 18 -58 41
-58 81 0 25 0 25 30 10 17 -9 40 -13 51 -10z m1123 4 c-7 -12 -74 -12 -74 0 0
11 37 18 62 13 10 -2 15 -8 12 -13z m-2706 -11 c-9 -13 -27 -47 -42 -76 -15
-30 -30 -52 -32 -49 -7 6 43 106 64 130 21 24 27 21 10 -5z m3074 4 c20 -29
50 -41 111 -43 64 -3 71 -11 27 -34 -37 -19 -42 -19 -99 6 -39 16 -50 27 -59
55 -11 37 -1 45 20 16z m-2857 -23 c-9 -17 -19 -29 -21 -26 -7 7 18 57 28 57
5 0 1 -14 -7 -31z m133 19 c-3 -7 -19 -14 -36 -16 -35 -4 -35 -3 -32 -86 2
-69 22 -135 56 -186 23 -34 30 -73 18 -104 -8 -22 -34 -20 -35 2 -1 36 -10 69
-39 144 -35 91 -48 175 -30 207 18 34 108 69 98 39z m1506 -9 c47 -28 66 -60
66 -114 0 -48 -17 -92 -45 -115 -15 -12 -16 -9 -13 35 3 46 6 50 47 72 2 1
-15 23 -37 50 -39 47 -68 93 -58 93 3 0 20 -9 40 -21z m762 -14 c28 -30 56
-32 100 -4 36 22 46 13 16 -14 -27 -25 -75 -31 -108 -14 -48 24 -60 9 -24 -28
20 -20 28 -35 21 -39 -6 -4 -22 4 -36 18 -37 37 -34 97 4 105 2 1 14 -10 27
-24z m-2136 -40 c17 -46 20 -75 6 -75 -15 0 -26 30 -26 73 0 34 8 35 20 2z
m-137 -47 c-4 -32 2 -58 21 -102 15 -33 24 -61 22 -63 -3 -3 -17 13 -31 36
-29 42 -42 111 -31 156 10 40 24 20 19 -27z m-261 -9 c-5 -13 -7 -41 -5 -62 5
-46 -20 -135 -48 -171 -25 -32 -37 -28 -15 6 15 22 20 51 30 150 3 26 12 61
21 78 19 36 30 35 17 -1z m1141 10 c46 -12 77 -41 77 -72 0 -12 7 -33 16 -45
9 -13 13 -26 10 -30 -13 -12 -41 15 -47 48 -4 18 -13 38 -20 45 -41 37 -153
41 -210 6 -19 -12 -37 -21 -41 -21 -13 0 -9 58 4 66 35 22 130 23 211 3z
m1078 -5 l24 -27 -30 7 c-31 8 -47 24 -39 38 9 14 20 9 45 -18z m-2312 -133
c-15 -54 -51 -97 -96 -116 -54 -23 -60 -18 -26 18 17 17 33 43 35 57 2 16 11
26 27 30 30 7 37 20 53 95 l13 60 3 -50 c2 -27 -2 -69 -9 -94z m544 54 c49 6
51 6 30 -9 -46 -34 -68 -36 -107 -10 -31 21 -66 69 -66 90 0 4 21 -12 46 -36
44 -41 47 -42 97 -35z m2591 69 c25 -9 19 -30 -16 -60 -38 -31 -53 -50 -62
-80 -8 -27 16 -54 49 -54 21 0 24 4 23 35 -1 41 3 48 25 39 40 -15 31 -76 -14
-100 -34 -17 -53 -13 -90 20 -47 41 -50 54 -23 125 14 36 30 69 37 73 15 9 49
10 71 2z m-1368 -25 c8 -6 11 -15 8 -20 -8 -13 -98 -58 -126 -63 -13 -3 -24
-5 -26 -5 -1 -1 6 -10 16 -21 14 -16 34 -20 95 -23 43 -2 83 -9 89 -15 20 -20
2 -24 -30 -8 -35 18 -56 15 -103 -13 -44 -27 -72 -26 -106 3 -19 16 -28 34
-29 57 -1 19 -5 51 -9 72 l-7 37 53 0 c50 -1 52 -2 35 -15 -20 -15 -20 -15 0
-15 28 0 69 25 66 40 -3 15 53 7 74 -11z m537 -34 c25 -24 28 -32 25 -83 -4
-70 -26 -82 -58 -30 -18 30 -19 34 -4 45 9 6 22 9 30 6 31 -12 12 27 -31 61
-25 21 -45 42 -45 47 0 13 49 -14 83 -46z m207 14 c0 -11 -4 -18 -10 -14 -5 3
-7 12 -3 20 7 21 13 19 13 -6z m-1320 -5 c0 -2 -9 -4 -20 -4 -11 0 -20 4 -20
9 0 5 9 7 20 4 11 -3 20 -7 20 -9z m1281 -1 c0 -5 2 -16 4 -25 5 -27 -15 -101
-32 -120 -26 -29 -33 -21 -18 23 8 23 15 54 15 69 0 16 3 35 6 44 6 16 23 22
25 9z m-330 -40 c-13 -32 -74 -77 -93 -70 -8 3 -3 9 13 15 27 11 79 66 79 84
0 6 3 8 6 5 4 -4 1 -19 -5 -34z m-2447 5 c34 -48 16 -71 -64 -83 l-45 -6 34
25 c19 14 30 26 23 26 -17 0 -15 20 5 42 21 23 29 23 47 -4z m2893 -6 c50 -67
35 -133 -39 -174 -39 -21 -43 -28 -48 -68 -4 -35 -11 -48 -32 -59 -30 -17 -37
-14 -43 19 -7 38 20 85 84 145 33 32 64 70 69 85 10 27 3 53 -14 50 -5 0 -10
6 -12 14 -5 25 12 19 35 -12z m325 -107 c2 -31 -1 -40 -15 -43 -22 -4 -49 16
-41 30 4 6 10 5 15 -3 11 -17 11 -11 11 86 l-1 70 14 -50 c8 -27 16 -68 17
-90z m-1689 96 c8 -8 8 -14 0 -22 -9 -9 0 -20 35 -43 69 -48 87 -78 88 -144 1
-66 -10 -103 -37 -128 -18 -16 -17 -14 2 22 20 36 21 44 10 97 -18 83 -44 109
-144 140 -46 15 -103 30 -128 32 -73 9 -89 15 -89 30 0 8 7 15 15 15 8 0 15
-4 15 -9 0 -13 44 -19 66 -9 10 5 30 16 44 24 28 17 104 14 123 -5z m2023 -39
c-8 -7 -25 8 -37 31 -11 21 -10 21 15 -2 14 -14 24 -26 22 -29z m-3468 4 c4
-18 -24 -56 -40 -56 -5 0 -4 9 2 19 5 11 10 29 10 41 0 25 23 22 28 -4z m752
-2 c0 -2 -9 -4 -21 -4 -11 0 -18 4 -14 10 5 8 35 3 35 -6z m1858 -45 c-12 -22
-30 -47 -40 -56 -18 -16 -18 -16 -1 23 31 66 44 85 54 79 5 -4 0 -23 -13 -46z
m459 19 c-3 -7 -5 -2 -5 12 0 14 2 19 5 13 2 -7 2 -19 0 -25z m-2107 7 c11
-13 10 -23 -1 -57 -7 -22 -12 -50 -12 -60 4 -44 70 -81 94 -52 17 20 31 6 18
-18 -24 -44 -128 3 -149 68 -11 32 -10 39 10 66 31 42 14 50 -21 8 -35 -42
-36 -66 -4 -114 28 -41 19 -47 -20 -13 -47 40 -32 131 27 167 40 24 42 24 58
5z m330 -29 c30 -3 78 -12 105 -21 46 -13 53 -20 83 -74 17 -33 32 -71 32 -84
0 -29 -73 -115 -123 -146 -18 -11 -52 -23 -74 -27 -53 -8 -119 22 -150 69 -24
35 -30 81 -13 92 17 11 11 33 -17 61 l-28 26 30 -15 c17 -8 42 -28 57 -43 15
-16 43 -46 62 -67 39 -42 61 -41 52 3 -3 19 -1 30 9 34 16 6 31 -10 37 -39 4
-23 18 -24 32 -2 13 20 -5 42 -58 70 -30 15 -36 22 -23 25 36 7 15 19 -45 25
-58 6 -66 10 -100 49 -20 23 -36 44 -34 45 2 2 19 -5 37 -16 19 -11 61 -27 94
-37 90 -25 123 -44 139 -78 15 -32 11 -74 -10 -109 -15 -27 -72 -36 -122 -21
-60 17 -71 29 -65 68 6 43 -13 56 -22 16 -4 -20 -1 -42 12 -67 22 -45 60 -58
143 -50 45 5 60 12 82 36 15 17 32 48 38 71 22 81 -36 136 -168 160 -58 11
-108 36 -117 58 -10 26 5 31 38 13 18 -10 57 -21 87 -25z m853 -13 c-1 -29 2
-53 6 -53 21 0 168 33 184 41 25 14 21 2 -7 -16 -29 -19 -180 -44 -199 -33 -9
4 -12 17 -10 31 3 14 -3 39 -12 56 l-16 32 28 -3 c27 -3 28 -5 26 -55z m-513
7 c25 -49 28 -86 5 -52 -25 34 -46 92 -35 92 5 0 19 -18 30 -40z m1260 4 c-5
-20 -14 -42 -20 -48 -9 -8 -11 -6 -7 9 4 11 9 32 13 48 3 15 10 27 14 27 4 0
4 -16 0 -36z m-2377 -33 c12 -46 0 -51 -18 -8 -18 44 -19 50 -3 45 7 -3 16
-19 21 -37z m2499 7 c-9 -9 -12 -7 -12 12 0 19 3 21 12 12 9 -9 9 -15 0 -24z
m-1238 13 c10 -16 95 -51 123 -51 16 0 35 -5 43 -10 13 -9 13 -11 0 -20 -24
-16 -78 -11 -120 10 -36 18 -70 54 -70 72 0 11 18 10 24 -1z m-1865 -10 c12
-8 8 -17 -22 -50 -46 -51 -48 -88 -9 -131 21 -23 41 -33 87 -41 65 -12 144
-49 172 -83 l18 -20 -28 18 c-32 20 -48 14 -29 -12 48 -66 52 -77 46 -116 -4
-25 -2 -41 6 -46 18 -11 -55 -88 -94 -98 -34 -10 -78 1 -97 24 -6 7 -13 28
-15 46 -1 18 -3 35 -3 37 -1 2 -8 -2 -16 -9 -22 -18 -19 -40 11 -83 29 -43 25
-60 -6 -32 -11 10 -20 13 -20 7 0 -19 38 -33 91 -34 119 0 194 82 194 214 0
57 2 66 13 51 18 -26 14 -122 -7 -170 -32 -69 -122 -120 -203 -116 -10 0 -29
1 -43 2 -32 1 -67 36 -64 64 1 12 -1 30 -5 39 -9 20 24 72 55 88 22 12 27 5
31 -50 3 -32 6 -35 39 -38 41 -3 78 23 60 41 -7 7 -17 5 -31 -8 -29 -27 -49
-6 -30 31 13 24 13 28 -9 45 -13 10 -33 19 -45 20 -19 0 -19 1 4 10 32 13 59
6 93 -27 31 -29 54 -21 43 14 -14 42 -98 51 -244 26 -43 -7 -97 11 -115 40 -9
13 -22 45 -31 72 l-15 49 0 -52 c-1 -47 3 -57 35 -93 40 -44 41 -56 5 -37 -60
30 -82 158 -39 227 l22 35 7 -43 c11 -60 41 -97 104 -127 40 -20 62 -25 84
-20 44 9 38 25 -9 25 -57 0 -106 23 -130 62 -25 42 -27 72 -2 42 42 -52 85
-72 175 -84 86 -12 129 -8 111 9 -5 5 -43 12 -84 16 -100 9 -139 29 -167 85
-19 38 -21 51 -12 83 12 44 64 107 88 107 9 0 22 -4 30 -9z m607 -122 c21 -21
50 -41 65 -44 19 -4 31 -16 38 -37 13 -36 173 -198 242 -246 49 -33 79 -39
142 -27 37 8 39 6 115 -71 81 -82 142 -163 142 -187 0 -39 109 -96 196 -101
86 -6 111 7 128 63 7 26 25 64 40 85 14 21 26 46 26 56 0 33 15 30 59 -14 25
-24 62 -53 81 -64 34 -19 35 -20 32 -75 -3 -50 0 -58 28 -91 53 -60 177 -84
270 -51 23 8 44 15 46 15 13 0 -2 -42 -47 -135 -53 -111 -61 -153 -12 -66 29
52 40 60 61 39 9 -9 12 -8 12 5 0 9 7 17 16 17 19 0 74 116 103 220 35 119 55
145 80 103 9 -15 10 -13 11 12 0 22 3 26 12 17 17 -17 28 -15 28 4 0 8 4 13 9
9 6 -3 8 -14 6 -25 -2 -11 0 -20 5 -20 16 0 50 53 50 78 0 14 3 22 8 18 7 -7
8 -11 11 -37 0 -6 16 -2 37 10 19 12 39 19 44 16 10 -6 18 -51 25 -145 8 -104
14 -140 25 -140 5 0 10 14 12 32 2 17 8 33 14 35 13 4 30 -57 40 -143 9 -77 8
-95 -8 -106 -34 -22 -199 -60 -318 -73 -30 -3 -82 -10 -115 -15 -33 -5 -78
-12 -100 -15 -196 -28 -457 -107 -481 -146 -8 -14 -4 -13 106 26 82 29 321 86
440 105 103 16 117 18 185 25 33 4 103 16 155 27 159 33 149 33 158 7 5 -13
21 -118 36 -234 15 -115 37 -257 48 -315 10 -58 20 -112 21 -120 3 -21 -130
-57 -273 -75 -119 -15 -211 -21 -440 -30 -74 -3 -175 -8 -225 -10 -362 -17
-402 -17 -520 -1 -127 18 -155 21 -250 31 -104 10 -148 14 -220 20 -313 26
-526 81 -770 201 -218 107 -437 258 -581 401 -217 215 -314 424 -305 661 1 45
40 82 84 82 47 0 127 25 232 72 102 46 161 52 223 21 32 -15 37 -22 34 -48 -1
-16 0 -39 3 -50 6 -25 60 -85 99 -109 37 -24 117 -25 171 -2 119 50 162 116
171 266 8 115 9 118 82 228 66 99 82 131 82 170 1 22 4 18 20 -22 11 -27 36
-67 56 -87z m1484 115 c0 -17 -22 -14 -28 4 -2 7 3 12 12 12 9 0 16 -7 16 -16z
m480 -36 c0 -23 -15 -24 -16 0 -1 9 -4 26 -8 37 -8 20 -7 20 8 1 9 -11 16 -28
16 -38z m1074 21 c11 -10 17 -21 13 -25 -8 -9 -117 36 -117 48 0 16 83 -2 104
-23z m-1935 -44 c0 -5 -6 -1 -14 9 -8 11 -15 27 -15 35 1 17 29 -26 29 -44z
m-581 -4 c-4 -20 -38 -27 -49 -10 -4 7 -3 19 2 25 14 17 51 5 47 -15z m1392
10 c16 -30 12 -36 -10 -16 -21 19 -26 35 -10 35 5 0 14 -9 20 -19z m1056 -15
c42 -42 43 -59 4 -86 -38 -27 -39 -44 -2 -35 37 9 61 32 84 80 l19 40 -6 -47
c-5 -40 -3 -48 9 -48 9 0 16 -6 16 -14 0 -18 -56 -66 -78 -67 -9 -1 -30 -3
-47 -5 -78 -9 -88 -7 -112 21 -28 31 -27 59 2 61 11 1 28 2 37 3 26 2 78 50
71 66 -3 8 -10 15 -17 15 -19 0 -57 31 -51 41 12 18 37 9 71 -25z m-3286 3 c0
-11 -29 -17 -101 -23 -64 -5 -89 -17 -112 -55 l-16 -26 -1 32 c0 34 21 63 48
64 9 0 49 6 87 13 70 13 95 11 95 -5z m1580 -5 c35 -23 55 -28 150 -34 75 -5
117 -13 135 -24 41 -27 30 -37 -40 -35 -36 1 -68 -1 -71 -4 -13 -13 10 -27 44
-27 32 0 122 -32 122 -43 0 -2 -21 3 -46 11 -42 14 -53 14 -117 -2 -47 -11
-74 -13 -80 -7 -7 7 -5 12 6 16 9 3 24 7 33 10 25 8 9 18 -33 20 -50 2 -96 27
-127 68 -23 30 -35 77 -21 77 3 0 23 -12 45 -26z m1451 15 c49 -17 62 -33 19
-24 -42 9 -93 34 -69 35 9 0 31 -5 50 -11z m-3468 -16 c-11 -32 -33 -59 -33
-42 0 14 27 59 35 59 3 0 2 -8 -2 -17z m177 8 c0 -5 -7 -14 -15 -21 -20 -17
-19 -33 5 -55 24 -21 28 -57 5 -49 -21 9 -58 72 -49 86 21 37 54 61 54 39z
m2441 -12 c29 -20 38 -39 19 -39 -5 0 -24 13 -42 30 -38 34 -21 40 23 9z
m-1609 -31 c-9 -9 -12 -7 -12 12 0 19 3 21 12 12 9 -9 9 -15 0 -24z m1520 23
c33 -13 87 -67 94 -95 12 -49 -2 -47 -30 4 -23 42 -38 56 -80 76 -33 16 -44
24 -29 24 12 0 32 -4 45 -9z m253 -34 c-9 -36 -40 -61 -62 -51 -16 7 -15 8 5
12 14 2 29 17 39 38 19 38 27 39 18 1z m420 3 c-10 -11 -23 -20 -28 -20 -6 0
-2 9 8 20 10 11 23 20 28 20 6 0 2 -9 -8 -20z m-2254 -34 c0 -17 2 -52 3 -79
1 -26 -2 -46 -7 -44 -5 1 -20 29 -34 61 -22 54 -23 60 -9 82 21 31 46 21 47
-20z m1015 16 c9 -16 39 -44 66 -61 54 -36 60 -56 6 -23 -47 29 -121 112 -100
112 6 0 18 -13 28 -28z m878 1 c-8 -33 -48 -79 -75 -86 -26 -7 -25 -3 23 59
48 60 62 67 52 27z m-1754 -44 c22 -28 38 -55 34 -60 -8 -14 -60 -11 -73 5
-19 23 -29 71 -19 89 5 10 11 17 13 17 3 0 23 -23 45 -51z m1445 29 c26 -23
43 -75 37 -115 -2 -12 -15 -33 -29 -47 -45 -45 -98 -27 -91 31 4 36 19 36 36
1 14 -29 26 -35 37 -18 6 10 -23 80 -34 80 -3 0 -17 9 -30 19 l-24 18 51 -5
c65 -6 69 11 10 38 -39 17 -40 19 -16 19 15 1 39 -9 53 -21z m533 5 c13 -25 4
-43 -19 -43 -25 0 -35 25 -19 45 16 20 27 19 38 -2z m160 -31 c-63 -68 -78
-122 -34 -122 13 0 34 -8 47 -19 13 -10 33 -20 44 -22 26 -5 78 -81 78 -114 0
-14 -6 -32 -13 -38 -9 -9 -11 -4 -10 23 1 19 2 40 1 47 -1 6 -35 19 -76 28
-115 26 -159 72 -130 137 17 39 49 78 64 78 5 0 18 11 28 24 10 13 20 20 22
14 2 -5 -8 -22 -21 -36z m-2948 18 c0 -11 -7 -20 -15 -20 -15 0 -21 21 -8 33
12 13 23 7 23 -13z m1080 6 c0 -8 -9 -24 -19 -37 -14 -18 -29 -24 -60 -24 -22
0 -46 7 -53 14 -11 11 -7 13 26 8 33 -5 42 -2 65 22 30 33 41 37 41 17z m-919
-24 c-32 -46 -50 -57 -69 -45 -31 19 -20 46 23 59 63 19 69 18 46 -14z m72
-15 c-34 -53 -59 -87 -66 -87 -11 0 12 41 41 73 27 29 38 35 25 14z m1475 -37
c34 -28 62 -58 62 -66 0 -8 -9 -33 -20 -55 -18 -34 -23 -38 -40 -29 -30 16
-37 33 -9 25 20 -6 17 -1 -15 29 -44 42 -42 57 3 30 37 -22 55 -10 20 13 -35
25 -66 61 -72 83 -8 29 2 25 71 -30z m-978 -19 c0 -37 -22 -11 -25 30 -3 31
-2 32 11 14 8 -10 14 -30 14 -44z m825 29 c-3 -5 -16 -15 -28 -21 -22 -12 -22
-12 -3 10 19 21 43 30 31 11z m1801 -65 c63 -25 134 -26 158 -2 20 19 26 21
26 7 0 -18 -65 -43 -112 -43 -74 1 -158 57 -158 105 0 7 8 -1 19 -18 12 -19
36 -37 67 -49z m-2459 29 c8 -22 -15 -44 -26 -25 -10 16 -4 41 10 41 5 0 12
-7 16 -16z m1888 -100 c8 -13 31 -34 50 -47 41 -26 40 -41 -1 -45 -27 -3 -31
1 -56 60 -37 89 -39 97 -31 126 6 24 8 22 14 -21 4 -27 15 -59 24 -73z m-1770
96 c8 -13 -25 -13 -45 0 -12 8 -9 10 12 10 15 0 30 -4 33 -10z m1014 -4 c25
-13 60 -66 43 -66 -12 0 -82 60 -82 71 0 12 6 11 39 -5z m798 -86 c-5 -22 -27
35 -26 68 0 24 2 22 15 -13 8 -22 13 -46 11 -55z m-1856 44 c9 -26 -4 -74 -20
-74 -14 0 -35 74 -28 94 8 21 36 9 48 -20z m1569 19 c0 -4 -14 -22 -32 -40
l-31 -32 13 -54 c11 -46 10 -58 -3 -83 l-16 -29 -1 30 c0 17 -9 45 -20 63 -26
42 -25 73 1 106 27 34 89 61 89 39z m-1659 -68 c50 -49 58 -70 17 -43 -29 19
-98 90 -98 101 0 14 30 -7 81 -58z m1125 44 c21 -24 25 -92 6 -111 -9 -9 -12
-4 -12 28 -1 21 -7 50 -15 64 -25 44 -13 56 21 19z m-867 2 c20 -13 5 -29 -34
-37 -34 -6 -57 -24 -54 -40 4 -25 -2 -64 -10 -60 -13 8 -32 92 -25 110 10 26
95 45 123 27z m799 -19 c18 -24 15 -66 -9 -96 -31 -39 -52 -47 -88 -35 -59 21
-84 119 -36 141 34 15 41 5 25 -41 -11 -35 -11 -43 4 -66 17 -26 40 -29 42 -7
1 7 2 39 3 73 1 58 2 60 24 54 12 -4 28 -14 35 -23z m-1157 -14 c47 -33 91
-79 84 -86 -6 -7 -43 20 -100 72 -57 53 -48 61 16 14z m760 19 c-1 -12 -15 -9
-19 4 -3 6 1 10 8 8 6 -3 11 -8 11 -12z m799 -6 c-16 -30 -40 -51 -58 -51 -12
1 -4 12 23 35 47 40 49 41 35 16z m-824 -33 c5 -7 1 -9 -13 -6 -16 4 -22 0
-26 -19 -4 -19 4 -29 40 -54 24 -17 42 -33 40 -36 -3 -2 -40 13 -83 35 l-78
39 40 26 c43 28 69 33 80 15z m1014 -28 c0 -22 -2 -40 -5 -40 -11 0 -25 43
-20 60 11 34 25 22 25 -20z m-1396 1 c7 -11 -39 -20 -55 -11 -8 6 -6 9 7 13
31 8 43 7 48 -2z m161 0 c-5 -5 -32 -12 -60 -16 -43 -5 -48 -4 -33 7 19 16
109 25 93 9z m909 -20 c8 -13 -48 -24 -75 -16 -17 6 -19 9 -8 16 18 12 76 11
83 0z m-463 -21 c32 -26 4 -27 -36 0 -27 18 -28 20 -9 20 12 0 32 -9 45 -20z
m-371 -5 c6 -8 36 -21 66 -30 104 -30 159 -112 106 -156 -21 -16 -109 -35
-119 -25 -3 3 15 10 40 17 84 21 102 76 37 113 -30 18 -52 21 -164 21 -133 0
-154 6 -119 37 41 35 131 49 153 23z m978 -15 c-23 -32 -28 -36 -28 -20 0 10
36 50 45 50 3 0 -4 -13 -17 -30z m672 10 c0 -5 -16 -10 -35 -10 -19 0 -35 5
-35 10 0 6 16 10 35 10 19 0 35 -4 35 -10z m-760 -9 c0 -12 -20 -25 -27 -18
-7 7 6 27 18 27 5 0 9 -4 9 -9z m-66 -30 c12 -13 15 -27 10 -45 -8 -32 -21
-34 -26 -3 -3 19 -10 23 -58 27 l-55 5 25 18 c32 23 82 22 104 -2z m226 1 c0
-21 -18 -42 -37 -42 -18 0 -16 25 3 44 21 21 34 20 34 -2z m-1270 -33 c0 -16
-4 -29 -9 -29 -9 0 -21 57 -13 65 11 10 22 -8 22 -36z m666 5 c43 -14 107 -27
142 -28 53 -3 68 -8 93 -32 32 -31 37 -59 13 -92 -17 -25 -36 -30 -28 -7 4 9
0 15 -9 15 -17 0 -40 24 -31 33 8 8 54 -14 54 -25 0 -5 4 -7 9 -4 18 12 -2 45
-33 55 -17 5 -67 12 -111 16 -110 9 -185 46 -185 89 0 8 0 9 86 -20z m1157
-31 c119 -110 292 -292 332 -353 91 -138 143 -264 190 -459 40 -166 42 -182
16 -198 -53 -33 -226 -95 -306 -109 -108 -18 -203 -35 -220 -39 -11 -2 -26 -1
-32 3 -7 4 -26 77 -43 162 -33 164 -72 313 -146 550 -79 253 -111 428 -86 468
6 9 16 10 39 1 56 -19 285 -300 448 -550 106 -161 142 -201 174 -192 22 6 41
51 41 96 0 24 -3 27 -14 18 -8 -7 -17 -23 -20 -37 -4 -16 -13 -24 -23 -22 -8
2 -54 59 -101 128 -47 69 -124 176 -171 239 -47 63 -93 124 -101 135 -33 47
24 -10 108 -107 78 -92 108 -116 83 -69 -10 19 -86 112 -228 280 -29 34 -53
66 -53 72 0 11 30 29 48 30 7 0 36 -21 65 -47z m57 32 c0 -8 -4 -15 -9 -15 -5
0 -11 7 -15 15 -3 9 0 15 9 15 8 0 15 -7 15 -15z m-1597 -25 c62 -18 42 -29
-24 -14 -77 18 -113 38 -54 30 22 -3 57 -11 78 -16z m843 9 c3 -6 -2 -28 -12
-50 -17 -34 -23 -39 -54 -39 l-35 0 33 20 c31 19 55 57 45 73 -7 12 15 8 23
-4z m1025 -66 c166 -174 277 -392 372 -733 44 -156 51 -188 48 -217 -2 -20
-59 -44 -94 -41 -29 3 -33 8 -49 58 -9 30 -29 107 -43 170 -67 293 -163 470
-372 691 -78 81 -90 109 -42 94 38 -12 220 -204 278 -293 30 -45 56 -80 59
-77 6 6 -105 197 -180 308 -32 48 -62 95 -65 103 -11 28 27 1 88 -63z m-1946
-64 c34 -16 78 -31 98 -33 41 -4 55 -12 43 -23 -13 -13 -178 -8 -219 6 -46 16
-67 53 -67 117 l0 46 43 -41 c23 -23 69 -55 102 -72z m-1 85 c71 -17 110 -38
56 -30 -19 2 -51 8 -70 12 -33 7 -34 6 -20 -11 12 -15 12 -17 1 -14 -8 3 -26
20 -40 39 -23 30 -24 33 -6 26 11 -5 46 -14 79 -22z m392 -25 c22 -36 28 -39
69 -39 25 0 60 -6 78 -14 36 -15 97 -79 97 -101 0 -24 -25 -17 -40 9 -14 28
-40 40 -119 56 -73 14 -108 37 -126 83 -28 69 -2 73 41 6z m567 -69 c-3 -11
-7 -20 -9 -20 -2 0 -4 9 -4 20 0 11 4 20 9 20 5 0 7 -9 4 -20z m-212 -84 c-12
-13 -21 -29 -19 -36 2 -7 -3 -15 -9 -17 -7 -3 -13 3 -13 12 0 14 -3 15 -13 6
-19 -15 -52 -90 -44 -98 4 -3 25 7 47 22 22 15 43 25 47 22 3 -4 -2 -9 -11
-13 -9 -3 -16 -17 -16 -30 0 -34 -43 -51 -76 -29 -51 33 -11 119 75 165 49 26
59 25 32 -4z m149 -36 c-17 -32 -22 -18 -8 21 8 22 13 28 16 17 2 -9 -2 -27
-8 -38z m-870 25 c82 -7 92 -11 70 -26 -17 -11 -36 -9 -152 17 -16 3 -28 10
-28 15 0 6 8 8 18 5 9 -3 51 -8 92 -11z m539 6 c17 -11 7 -41 -12 -41 -28 0
-41 -27 -27 -60 15 -36 25 -38 42 -7 l12 22 6 -25 c10 -40 1 -62 -24 -54 -11
3 -27 13 -34 23 -19 24 -44 115 -36 134 7 18 50 23 73 8z m304 -96 c4 -8 2
-17 -3 -20 -6 -4 -10 3 -10 14 0 25 6 27 13 6z m-36 -77 c2 6 8 12 13 12 5 0
0 -27 -12 -60 -11 -33 -24 -60 -29 -60 -5 0 -8 3 -8 8 4 25 -4 34 -12 13 -5
-13 -12 -22 -15 -19 -2 3 5 31 17 63 16 43 24 54 31 44 7 -11 11 -11 15 -1z
m578 -169 c65 -201 145 -556 145 -643 0 -24 -3 -26 -49 -26 -57 0 -56 -1 -66
105 -3 39 -15 138 -26 220 -11 83 -22 170 -25 195 -2 25 -7 54 -9 65 -2 11 -7
47 -10 80 -4 33 -8 72 -11 88 -2 15 0 27 5 27 6 0 26 -50 46 -111z m-2870
-545 c60 -36 141 -82 179 -101 99 -50 281 -122 326 -129 25 -4 40 -12 43 -24
3 -13 11 -17 26 -13 12 3 28 0 36 -7 8 -6 23 -9 34 -5 11 3 34 -1 51 -10 22
-11 55 -16 113 -15 45 1 123 1 172 0 143 -3 58 -21 -100 -22 -189 -1 -347 36
-568 133 -131 58 -437 236 -437 254 0 12 24 0 125 -61z m3671 16 c32 -12 28
-19 -14 -24 -25 -4 -30 -1 -29 15 1 22 6 23 43 9z m-86 -44 c0 -8 -162 -57
-168 -51 -8 8 18 25 39 25 9 0 22 7 29 15 11 13 100 23 100 11z m-440 -92 c0
-2 -12 -4 -26 -4 -14 0 -23 4 -20 9 6 8 46 4 46 -5z m155 -34 c3 -5 -1 -10 -9
-10 -9 0 -16 5 -16 10 0 6 4 10 9 10 6 0 13 -4 16 -10z m-309 -25 c18 -14 18
-14 -8 -15 -18 0 -28 5 -28 15 0 19 11 19 36 0z m209 0 c-22 -8 -51 -13 -65
-13 -19 0 -16 3 15 13 22 8 51 13 65 13 19 0 16 -3 -15 -13z m-220 -85 c-3 -5
-12 -7 -20 -3 -21 7 -19 13 6 13 11 0 18 -4 14 -10z m-412 -87 c-7 -2 -21 -2
-30 0 -10 3 -4 5 12 5 17 0 24 -2 18 -5z m-688 -18 c-5 -2 -22 -6 -37 -9 -19
-4 -26 -11 -22 -21 7 -18 -7 -20 -24 -3 -26 26 -13 38 41 37 28 0 48 -2 42 -4z
m528 -2 c-13 -2 -33 -2 -45 0 -13 2 -3 4 22 4 25 0 35 -2 23 -4z m-104 -33
c-9 -5 -28 -6 -45 0 -27 8 -26 8 16 9 32 0 40 -2 29 -9z"/>
<path d="M3470 6115 c0 -9 6 -12 15 -9 8 4 15 10 15 15 0 5 -7 9 -15 9 -8 0
-15 -7 -15 -15z"/>
<path d="M3728 5889 c-24 -14 -23 -28 2 -22 25 7 49 33 29 33 -8 0 -22 -5 -31
-11z"/>
<path d="M4222 5805 c7 -8 87 -9 95 -2 3 4 -18 7 -47 7 -29 0 -51 -2 -48 -5z"/>
<path d="M3194 5616 c-10 -8 -16 -18 -12 -22 10 -9 88 14 88 26 0 15 -54 12
-76 -4z"/>
<path d="M4100 5569 c0 -5 10 -9 22 -9 12 0 18 3 14 7 -10 11 -36 12 -36 2z"/>
<path d="M4751 5016 c7 -15 15 -23 17 -16 3 7 -3 19 -13 28 -15 16 -16 15 -4
-12z"/>
<path d="M4626 4875 c14 -19 37 -68 49 -107 13 -40 24 -64 25 -53 8 85 -41
195 -86 195 -11 0 -8 -9 12 -35z"/>
<path d="M3815 5225 c-62 -31 -97 -69 -93 -102 4 -35 21 -31 41 11 11 23 37
49 72 72 30 19 55 37 55 39 0 11 -28 3 -75 -20z"/>
<path d="M3684 5084 c7 -27 21 -43 39 -44 12 0 -18 63 -32 68 -11 4 -12 -2 -7
-24z"/>
<path d="M3615 5009 c-10 -15 1 -23 20 -15 9 3 13 10 10 16 -8 13 -22 13 -30
-1z"/>
<path d="M3640 4961 c0 -9 53 -31 76 -31 25 0 14 18 -17 29 -39 13 -59 14 -59
2z"/>
<path d="M2472 4918 c3 -7 13 -15 22 -16 12 -3 17 1 14 10 -3 7 -13 15 -22 16
-12 3 -17 -1 -14 -10z"/>
<path d="M3658 4903 c6 -2 18 -2 25 0 6 3 1 5 -13 5 -14 0 -19 -2 -12 -5z"/>
<path d="M3485 4872 c-41 -7 -49 -12 -37 -24 12 -12 102 -2 102 11 0 11 -38
18 -65 13z"/>
<path d="M4006 4867 c-10 -8 -17 -19 -15 -26 3 -9 9 -8 23 2 10 8 17 19 15 26
-3 9 -9 8 -23 -2z"/>
<path d="M3580 4862 c0 -13 25 -22 60 -22 47 0 131 -21 124 -31 -3 -5 10 -16
30 -24 47 -20 48 -20 28 15 -13 23 -30 34 -67 45 -67 19 -175 29 -175 17z"/>
<path d="M2953 4854 c3 -3 22 -6 42 -6 20 0 39 3 42 6 4 3 -15 6 -42 6 -27 0
-46 -3 -42 -6z"/>
<path d="M3105 4850 c-6 -10 34 -30 61 -30 23 0 16 20 -12 30 -32 13 -41 13
-49 0z"/>
<path d="M3290 4825 c0 -8 9 -15 19 -15 10 0 21 7 25 15 4 11 -1 15 -19 15
-16 0 -25 -6 -25 -15z"/>
<path d="M2843 4763 c-36 -5 -44 -18 -15 -25 22 -6 123 -1 130 6 15 16 -49 26
-115 19z"/>
<path d="M2986 4762 c-8 -14 16 -31 52 -38 25 -5 32 -3 32 9 0 9 -10 19 -22
22 -13 4 -30 9 -40 11 -9 3 -19 1 -22 -4z"/>
<path d="M3760 4760 c0 -11 59 -40 82 -40 19 0 -3 17 -44 35 -24 9 -38 11 -38
5z"/>
<path d="M2735 4740 c-8 -13 20 -24 41 -16 20 8 9 26 -16 26 -10 0 -22 -5 -25
-10z"/>
<path d="M3435 4733 c-33 -7 -64 -18 -70 -24 -7 -8 -4 -10 10 -6 20 6 62 12
150 22 28 3 55 11 60 16 14 14 -74 9 -150 -8z"/>
<path d="M3617 4744 c-13 -13 -7 -24 14 -24 11 0 19 5 17 12 -5 14 -22 21 -31
12z"/>
<path d="M2677 4723 c-13 -12 -7 -23 12 -23 10 0 21 7 25 15 5 15 -24 22 -37
8z"/>
<path d="M3114 4715 c10 -8 39 -17 65 -20 25 -3 59 -8 74 -10 19 -3 27 -1 25
7 -5 15 -91 38 -143 37 -37 0 -38 -1 -21 -14z"/>
<path d="M3690 4723 c0 -5 17 -15 38 -21 20 -7 58 -18 85 -26 60 -19 63 -2 4
24 -52 23 -127 37 -127 23z"/>
<path d="M3811 4641 c-8 -5 8 -16 40 -30 55 -22 76 -21 43 4 -28 21 -69 34
-83 26z"/>
<path d="M3750 4586 c0 -10 28 -13 41 -5 10 6 7 9 -13 9 -16 0 -28 -2 -28 -4z"/>
<path d="M3775 4524 c10 -8 24 -14 31 -14 7 0 19 -3 28 -6 11 -4 16 -1 16 10
0 9 -8 16 -17 17 -10 1 -31 2 -47 4 -27 2 -28 1 -11 -11z"/>
<path d="M3740 4476 c0 -2 9 -6 20 -9 11 -3 20 -1 20 4 0 5 -9 9 -20 9 -11 0
-20 -2 -20 -4z"/>
<path d="M3724 4439 c-9 -16 12 -33 31 -25 14 5 15 9 5 21 -15 18 -26 19 -36
4z"/>
<path d="M3720 4376 c0 -9 7 -16 16 -16 9 0 14 5 12 12 -6 18 -28 21 -28 4z"/>
<path d="M2554 4235 c-86 -15 -133 -30 -196 -61 -52 -26 -84 -62 -68 -78 6 -6
23 4 47 31 51 54 140 76 308 77 110 1 229 -16 240 -34 2 -4 -26 -6 -63 -5
-130 2 -240 -34 -327 -108 -45 -38 -96 -67 -119 -67 -8 0 -31 14 -51 31 -40
36 -56 32 -31 -6 26 -40 75 -65 123 -63 38 1 48 -4 103 -56 82 -75 147 -108
219 -109 61 0 146 30 177 64 30 34 7 32 -58 -4 -54 -31 -71 -35 -118 -33 -76
4 -157 46 -176 91 -8 19 -14 36 -14 39 0 3 21 -4 46 -15 35 -16 64 -20 127
-19 45 1 93 1 107 1 22 -1 23 -3 7 -12 -22 -13 -121 -16 -202 -6 -54 7 -58 6
-41 -7 44 -35 191 -32 278 6 44 19 63 38 38 38 -19 0 -10 19 13 25 41 13 87
55 87 80 0 13 -4 27 -10 30 -5 3 -10 11 -10 17 0 7 14 -1 30 -17 48 -46 41
-80 -37 -172 -25 -29 -43 -57 -41 -63 11 -35 128 121 128 172 0 42 -23 80 -72
122 l-43 36 46 -15 c64 -22 116 -68 129 -114 5 -21 12 -105 14 -187 2 -82 5
-171 7 -199 l2 -50 7 40 c4 22 6 121 5 220 -1 254 -16 282 -164 329 -175 55
-322 72 -447 51z m256 -116 c54 -3 80 -13 145 -56 59 -39 56 -41 -16 -9 -102
46 -228 43 -347 -10 -76 -34 -85 -26 -17 15 50 30 171 73 185 66 3 -2 25 -4
50 -6z m45 -88 c60 -4 56 -49 -7 -77 -79 -36 -268 -19 -268 23 0 27 137 63
225 57 17 -1 39 -2 50 -3z"/>
<path d="M4192 3948 c6 -18 28 -21 28 -4 0 9 -7 16 -16 16 -9 0 -14 -5 -12
-12z"/>
<path d="M2270 3558 c0 -13 7 -33 15 -44 14 -18 14 -17 15 12 0 17 -7 37 -15
44 -13 10 -15 9 -15 -12z"/>
<path d="M3131 3458 c-12 -33 -22 -126 -12 -108 18 31 40 120 30 125 -5 4 -13
-4 -18 -17z"/>
<path d="M2821 3329 c-28 -23 -73 -49 -98 -59 -26 -10 -49 -23 -51 -29 -7 -21
53 -11 94 17 84 56 123 87 124 100 0 20 -15 14 -69 -29z"/>
<path d="M3970 3167 c0 -18 7 -42 15 -53 13 -18 14 -16 10 21 -2 22 -4 46 -4
53 -2 28 -21 9 -21 -21z"/>
<path d="M4095 3134 c9 -22 25 -48 35 -59 20 -19 20 -19 20 1 0 24 -39 85 -58
92 -10 3 -9 -5 3 -34z"/>
<path d="M4146 3011 c6 -7 37 -14 69 -16 77 -6 60 12 -20 21 -46 5 -57 4 -49
-5z"/>
<path d="M2611 2935 c-1 -33 4 -77 9 -97 10 -35 58 -104 66 -95 2 2 -6 26 -18
53 -12 27 -30 83 -39 124 l-17 75 -1 -60z"/>
<path d="M4915 5250 c-4 -6 7 -10 24 -10 17 0 31 5 31 10 0 6 -11 10 -24 10
-14 0 -28 -4 -31 -10z"/>
<path d="M4770 5176 c0 -9 7 -19 15 -23 25 -9 27 2 5 22 -18 17 -20 17 -20 1z"/>
<path d="M5030 4459 c0 -11 4 -18 10 -14 5 3 7 12 3 20 -7 21 -13 19 -13 -6z"/>
<path d="M1710 4596 c-93 -35 -154 -82 -171 -133 -10 -33 -7 -98 6 -111 10
-10 25 20 25 53 1 54 58 153 74 127 3 -5 -4 -27 -15 -50 -18 -36 -24 -70 -20
-109 2 -21 21 -15 30 9 8 22 9 22 24 -9 24 -46 66 -76 84 -61 14 11 14 22 -3
144 -4 30 0 55 15 89 12 26 21 51 21 56 0 12 -28 10 -70 -5z"/>
<path d="M1486 4441 c-8 -12 3 -41 15 -41 12 0 12 37 0 45 -5 3 -12 1 -15 -4z"/>
<path d="M4475 4137 c-14 -56 21 -185 63 -229 14 -15 27 -26 29 -24 2 1 -8 24
-22 49 -23 40 -37 111 -45 225 0 1 -4 2 -10 2 -5 0 -12 -10 -15 -23z"/>
<path d="M4834 3469 c-4 -7 0 -17 9 -24 12 -9 18 -34 22 -86 3 -41 8 -82 11
-91 8 -28 24 -21 24 10 -1 15 1 43 4 63 7 58 -49 161 -70 128z"/>
<path d="M1590 3870 c0 -5 7 -10 15 -10 8 0 15 5 15 10 0 6 -7 10 -15 10 -8 0
-15 -4 -15 -10z"/>
<path d="M1543 3787 c-60 -46 -56 -79 5 -40 33 22 62 55 55 65 -7 12 -15 9
-60 -25z"/>
<path d="M4695 3811 c5 -61 37 -151 54 -151 7 0 -36 163 -52 200 -4 8 -5 -14
-2 -49z"/>
<path d="M4940 3600 c0 -8 45 -30 62 -30 7 0 7 4 -1 14 -12 15 -61 28 -61 16z"/>
<path d="M5040 3538 c1 -19 29 -53 37 -45 8 9 -14 57 -27 57 -5 0 -10 -6 -10
-12z"/>
<path d="M5062 3451 c-8 -5 -12 -16 -10 -24 2 -11 7 -14 16 -8 8 5 12 16 10
24 -2 11 -7 14 -16 8z"/>
<path d="M2222 3089 c2 -7 10 -15 17 -17 8 -3 12 1 9 9 -2 7 -10 15 -17 17 -8
3 -12 -1 -9 -9z"/>
<path d="M2887 2743 c-13 -12 -7 -33 8 -33 8 0 15 9 15 20 0 20 -11 26 -23 13z"/>
<path d="M2970 2705 c-7 -9 -10 -19 -6 -22 8 -9 38 9 44 25 5 17 -23 15 -38
-3z"/>
<path d="M3073 2713 c-7 -2 -13 -16 -13 -30 0 -22 2 -24 16 -13 8 8 20 22 25
32 10 18 0 23 -28 11z"/>
<path d="M3122 2677 c-15 -21 -18 -33 -10 -36 13 -4 48 35 48 55 0 23 -13 16
-38 -19z"/>
<path d="M3400 2666 c0 -28 14 -35 23 -12 3 8 -1 20 -9 26 -12 10 -14 8 -14
-14z"/>
<path d="M2880 2441 c-63 -20 -104 -40 -97 -48 7 -6 144 25 170 39 16 8 17 12
6 19 -17 11 -13 11 -79 -10z"/>
<path d="M4760 2744 c0 -12 35 -33 55 -33 18 -1 18 1 -5 19 -25 19 -50 26 -50
14z"/>
<path d="M1696 2577 c-94 -58 -142 -213 -88 -286 28 -38 47 -40 36 -5 -13 43
-8 127 9 160 9 16 34 53 56 83 58 77 55 88 -13 48z"/>
<path d="M2412 2521 c-18 -11 0 -24 53 -39 22 -6 56 -25 75 -42 42 -36 65 -25
34 17 -36 50 -128 86 -162 64z"/>
<path d="M2430 2351 c0 -13 55 -51 72 -51 7 1 -3 14 -22 30 -35 31 -50 37 -50
21z"/>
<path d="M3347 2176 c-3 -8 -2 -18 4 -22 16 -9 22 2 11 21 -8 15 -10 16 -15 1z"/>
<path d="M2073 1924 c-4 -10 -7 -37 -7 -59 1 -50 56 -285 67 -285 10 0 1 81
-18 170 -3 14 -7 58 -10 99 -4 77 -18 110 -32 75z"/>
<path d="M2580 1571 c0 -4 9 -20 20 -34 11 -14 20 -31 20 -38 0 -6 15 -30 34
-53 62 -76 148 -216 228 -374 128 -250 134 -232 12 31 -41 87 -77 170 -80 185
-16 64 -99 172 -134 172 -9 0 -25 9 -35 20 -18 20 -17 20 8 20 17 0 27 5 27
15 0 8 -8 15 -18 15 -11 0 -24 11 -30 25 -11 23 -52 36 -52 16z m144 -157 c7
-19 2 -18 -19 6 -16 17 -16 20 -3 15 9 -4 19 -13 22 -21z m56 -86 c0 -18 -17
-7 -29 19 -13 28 -13 28 8 9 12 -11 21 -23 21 -28z"/>
<path d="M2137 1544 c-7 -12 35 -144 46 -144 14 0 0 76 -22 118 -10 19 -20 31
-24 26z"/>
<path d="M2197 1337 c4 -41 17 -66 28 -55 8 7 -13 85 -24 92 -4 3 -6 -14 -4
-37z"/>
<path d="M3990 1325 c0 -9 6 -12 15 -9 8 4 15 10 15 15 0 5 -7 9 -15 9 -8 0
-15 -7 -15 -15z"/>
<path d="M4050 1275 c-11 -29 -4 -55 16 -55 15 0 31 28 28 48 -1 6 -2 17 -3
22 -2 20 -32 9 -41 -15z"/>
<path d="M3402 1164 c4 -21 22 -23 26 -1 2 10 -3 17 -13 17 -10 0 -15 -6 -13
-16z"/>
<path d="M3380 1106 c-12 -34 -13 -66 -1 -66 16 0 35 70 22 83 -7 7 -13 2 -21
-17z"/>
<path d="M1187 1103 c-13 -12 -7 -53 7 -53 21 0 86 29 86 39 0 18 -78 30 -93
14z"/>
<path d="M1334 1098 c-3 -4 1 -8 8 -9 7 0 21 -2 32 -4 10 -2 55 -6 100 -9 101
-8 175 -23 346 -74 212 -64 331 -91 482 -113 173 -24 251 -29 269 -19 24 15 4
20 -107 25 -187 10 -290 31 -605 125 -108 32 -234 64 -280 69 -112 15 -239 19
-245 9z"/>
<path d="M1122 978 c-21 -33 -22 -45 -3 -33 16 9 43 65 32 65 -5 0 -18 -15
-29 -32z"/>
<path d="M3326 965 c4 -8 12 -15 20 -15 8 0 14 7 14 15 0 8 -9 15 -20 15 -13
0 -18 -5 -14 -15z"/>
<path d="M2660 870 c0 -11 120 -28 126 -18 3 4 -1 10 -8 12 -24 9 -118 13
-118 6z"/>
<path d="M2850 830 c0 -13 41 -30 54 -22 5 2 -2 11 -15 18 -29 16 -39 17 -39
4z"/>
<path d="M3072 801 c20 -33 64 -53 102 -45 20 3 40 12 46 19 8 10 2 12 -27 8
-25 -3 -51 3 -78 17 -49 25 -58 25 -43 1z"/>
<path d="M2970 743 c11 -16 30 -39 40 -53 15 -20 19 -21 20 -8 0 19 -56 88
-72 88 -5 0 0 -12 12 -27z"/>
<path d="M3050 611 c0 -19 33 -85 37 -74 6 17 -16 83 -28 83 -5 0 -9 -4 -9 -9z"/>
<path d="M5087 1895 c-46 -16 -52 -21 -34 -28 17 -6 95 27 82 35 -6 3 -27 0
-48 -7z"/>
<path d="M4380 1442 c0 -5 11 -20 24 -34 12 -14 33 -42 46 -62 36 -59 35 -33
-2 36 -18 34 -41 64 -50 66 -10 2 -18 -1 -18 -6z"/>
<path d="M4384 1338 c8 -24 24 -70 35 -103 12 -33 23 -71 24 -84 1 -15 13 -31
32 -43 42 -25 53 -23 26 6 -13 14 -20 30 -16 36 4 6 0 19 -8 28 -8 9 -32 59
-52 110 -38 93 -65 128 -41 50z"/>
<path d="M4776 1148 c48 -94 153 -233 130 -173 -11 31 -129 205 -138 205 -5 0
-1 -15 8 -32z"/>
<path d="M4570 1161 c0 -6 32 -61 71 -122 39 -62 80 -132 91 -155 10 -24 25
-44 33 -44 20 0 12 18 -72 154 -74 120 -123 186 -123 167z"/>
<path d="M4480 1061 c0 -12 26 -21 58 -20 l27 1 -30 13 c-35 16 -55 19 -55 6z"/>
<path d="M4505 990 c18 -20 82 -46 91 -37 7 7 -78 57 -96 57 -9 0 -8 -6 5 -20z"/>
<path d="M4580 842 c0 -10 41 -35 47 -28 9 8 -17 36 -33 36 -8 0 -14 -3 -14
-8z"/>
<path d="M4783 787 c4 -10 7 -22 7 -25 0 -9 46 -62 53 -62 13 0 -16 59 -40 81
-21 20 -25 21 -20 6z"/>
<path d="M4592 773 c2 -10 11 -19 21 -21 24 -5 21 15 -4 28 -18 10 -20 9 -17
-7z"/>
<path d="M4608 703 c6 -2 18 -2 25 0 6 3 1 5 -13 5 -14 0 -19 -2 -12 -5z"/>
<path d="M2830 1461 c0 -15 24 -29 65 -36 26 -5 36 -4 30 2 -16 16 -95 44 -95
34z"/>
<path d="M2635 6250 c-10 -16 77 -15 105 1 10 5 -5 8 -42 9 -31 0 -60 -4 -63
-10z"/>
<path d="M2549 6154 c-44 -13 -105 -61 -94 -72 3 -3 18 4 33 16 15 13 50 33
77 47 57 27 51 30 -16 9z"/>
<path d="M2663 6136 c9 -7 17 -23 17 -36 0 -19 2 -20 15 -10 21 17 19 37 -4
50 -29 15 -50 12 -28 -4z"/>
<path d="M2250 6024 c8 -8 21 -19 31 -25 15 -7 17 -6 13 6 -6 15 -35 35 -50
35 -3 0 -1 -7 6 -16z"/>
<path d="M2495 6029 c-11 -17 0 -20 21 -4 17 13 17 14 2 15 -9 0 -20 -5 -23
-11z"/>
<path d="M2575 5940 c-53 -22 -83 -76 -71 -125 10 -38 21 -30 39 29 20 62 31
73 89 91 l43 14 -40 0 c-22 0 -49 -4 -60 -9z"/>
<path d="M1975 5870 c3 -5 12 -7 20 -3 21 7 19 13 -6 13 -11 0 -18 -4 -14 -10z"/>
<path d="M1950 5801 c0 -6 9 -15 21 -21 18 -10 20 -9 17 7 -3 19 -38 32 -38
14z"/>
<path d="M1795 5781 c-46 -12 -103 -44 -84 -48 17 -4 129 41 129 51 0 7 -4 7
-45 -3z"/>
<path d="M1635 5689 c-4 -6 -4 -13 -1 -16 8 -8 36 5 36 17 0 13 -27 13 -35 -1z"/>
<path d="M1568 5594 c-21 -26 -38 -54 -37 -63 0 -12 4 -11 16 7 8 12 21 22 28
22 15 0 38 43 33 64 -2 12 -13 3 -40 -30z"/>
<path d="M1637 5623 c-11 -11 -8 -51 5 -59 7 -5 9 -2 5 8 -3 9 1 25 9 37 13
17 13 21 1 21 -7 0 -17 -3 -20 -7z"/>
<path d="M1520 5481 c0 -11 -4 -21 -10 -21 -22 0 -8 -19 21 -29 48 -16 52 -14
32 20 -26 45 -43 56 -43 30z"/>
<path d="M1903 5397 c5 -15 37 -22 37 -9 0 5 -9 12 -21 15 -13 3 -19 1 -16 -6z"/>
<path d="M2851 5256 c-7 -8 -8 -17 -3 -20 6 -3 15 1 21 8 7 8 8 17 3 20 -6 3
-15 -1 -21 -8z"/>
<path d="M2075 5210 c3 -5 13 -10 21 -10 8 0 12 5 9 10 -3 6 -13 10 -21 10 -8
0 -12 -4 -9 -10z"/>
<path d="M5174 1374 c3 -9 6 -18 6 -20 0 -2 7 -4 15 -4 13 0 14 4 5 20 -13 24
-35 27 -26 4z"/>
<path d="M5320 1032 c0 -5 7 -16 16 -23 14 -12 16 -11 13 5 -4 20 -29 35 -29
18z"/>
</g>
</svg>
