<svg width="40" height="40" viewBox="0 0 40 40" fill="none" xmlns="http://www.w3.org/2000/svg">
<circle cx="20" cy="20" r="20" fill="url(#paint0_linear_134_2036)"/>
<path d="M13.675 29V26.425L19.65 20.275C20.9833 18.875 21.65 17.7083 21.65 16.775C21.65 16.0917 21.4333 15.5417 21 15.125C20.5833 14.7083 20.0417 14.5 19.375 14.5C18.0583 14.5 17.0833 15.1833 16.45 16.55L13.55 14.85C14.1 13.65 14.8917 12.7333 15.925 12.1C16.9583 11.4667 18.0917 11.15 19.325 11.15C20.9083 11.15 22.2667 11.65 23.4 12.65C24.5333 13.6333 25.1 14.9667 25.1 16.65C25.1 18.4667 24.1417 20.3333 22.225 22.25L18.8 25.675H25.375V29H13.675Z" fill="white"/>
<defs>
<linearGradient id="paint0_linear_134_2036" x1="31.144" y1="33.4324" x2="2.82154" y2="15.4401" gradientUnits="userSpaceOnUse">
<stop stop-color="#662DD8"/>
<stop offset="1" stop-color="#C8583F"/>
<stop offset="1" stop-color="#BF544D"/>
</linearGradient>
</defs>
</svg>
