<svg width="40" height="40" viewBox="0 0 40 40" fill="none" xmlns="http://www.w3.org/2000/svg">
<circle cx="20" cy="20" r="20" fill="url(#paint0_linear_134_2042)"/>
<path d="M20 17.875C21.6833 17.875 23.1 18.3833 24.25 19.4C25.4 20.4 25.975 21.8 25.975 23.6C25.975 25.4 25.3667 26.8083 24.15 27.825C22.95 28.8417 21.475 29.35 19.725 29.35C18.3083 29.35 17.0583 29.0333 15.975 28.4C14.8917 27.7667 14.1083 26.8333 13.625 25.6L16.575 23.875C17.0083 25.275 18.0583 25.975 19.725 25.975C20.6083 25.975 21.2917 25.7667 21.775 25.35C22.275 24.9167 22.525 24.3333 22.525 23.6C22.525 22.8833 22.2833 22.3083 21.8 21.875C21.3167 21.4417 20.6583 21.225 19.825 21.225H14.525L15.225 11.5H25.15V14.725H18.425L18.2 17.875H20Z" fill="white"/>
<defs>
<linearGradient id="paint0_linear_134_2042" x1="31.144" y1="33.4324" x2="2.82154" y2="15.4401" gradientUnits="userSpaceOnUse">
<stop stop-color="#662DD8"/>
<stop offset="1" stop-color="#C8583F"/>
<stop offset="1" stop-color="#BF544D"/>
</linearGradient>
</defs>
</svg>
