<svg width="1252" height="312" viewBox="0 0 1252 312" fill="none" xmlns="http://www.w3.org/2000/svg">
<path d="M1124.06 297.855C1115.36 298.801 1106.65 299.557 1097.76 300.503C996.503 310.908 891.844 321.502 803.272 275.153C750.469 247.533 709.401 201.941 669.846 158.052C637.105 121.729 603.228 84.0827 562.538 56.0843C481.157 0.465679 376.688 -12.3985 294.929 -17.128C274.111 -18.4522 252.914 -19.2089 232.474 -20.1548C160.746 -23.1817 86.5573 -26.2085 16.5323 -45.3156C13.315 -46.2615 10.2869 -47.0182 7.06949 -47.9641H0.634766C5.55544 -46.4507 10.6654 -44.9372 15.9646 -43.4238C86.1788 -24.3168 160.557 -21.1007 232.285 -18.263C252.725 -17.5063 273.921 -16.5604 294.74 -15.2362C376.309 -10.3175 480.4 2.35747 561.402 57.7869C601.903 85.407 635.78 123.054 668.332 159.376C708.076 203.455 749.145 249.236 802.326 276.856C891.466 323.394 996.314 312.8 1097.94 302.395C1106.84 301.449 1115.55 300.693 1124.25 299.747C1164.37 295.774 1208.28 293.315 1251.81 296.341V294.45C1208.28 291.234 1164.18 293.882 1124.06 297.855Z" fill="white"/>
</svg>
