<svg width="1149" height="817" viewBox="0 0 1149 817" fill="none" xmlns="http://www.w3.org/2000/svg">
<g opacity="0.3">
<path d="M27.8478 151.818C27.8478 153.143 26.9016 154.089 25.5768 154.089C24.252 154.089 23.3057 153.143 23.3057 151.818C23.3057 150.493 24.252 149.547 25.5768 149.547C26.7123 149.547 27.8478 150.682 27.8478 151.818Z" fill="white"/>
<path d="M58.8863 154.089C60.1406 154.089 61.1574 153.072 61.1574 151.818C61.1574 150.563 60.1406 149.547 58.8863 149.547C57.632 149.547 56.6152 150.563 56.6152 151.818C56.6152 153.072 57.632 154.089 58.8863 154.089Z" fill="#FCB35E"/>
<path d="M92.3844 154.089C93.6387 154.089 94.6555 153.072 94.6555 151.818C94.6555 150.563 93.6387 149.547 92.3844 149.547C91.1301 149.547 90.1133 150.563 90.1133 151.818C90.1133 153.072 91.1301 154.089 92.3844 154.089Z" fill="#FCB35E"/>
<path d="M125.883 154.089C127.138 154.089 128.154 153.072 128.154 151.818C128.154 150.563 127.138 149.547 125.883 149.547C124.629 149.547 123.612 150.563 123.612 151.818C123.612 153.072 124.629 154.089 125.883 154.089Z" fill="#FCB35E"/>
<path d="M159.192 154.089C160.446 154.089 161.463 153.072 161.463 151.818C161.463 150.563 160.446 149.547 159.192 149.547C157.938 149.547 156.921 150.563 156.921 151.818C156.921 153.072 157.938 154.089 159.192 154.089Z" fill="#FCB35E"/>
<path d="M192.691 154.089C193.945 154.089 194.962 153.072 194.962 151.818C194.962 150.563 193.945 149.547 192.691 149.547C191.437 149.547 190.42 150.563 190.42 151.818C190.42 153.072 191.437 154.089 192.691 154.089Z" fill="#FCB35E"/>
<path d="M27.8478 174.329C27.8478 175.654 26.9016 176.6 25.5768 176.6C24.252 176.6 23.3057 175.654 23.3057 174.329C23.3057 173.005 24.252 172.059 25.5768 172.059C26.7123 172.059 27.8478 173.005 27.8478 174.329Z" fill="#FCB35E"/>
<path d="M58.8863 176.6C60.1406 176.6 61.1574 175.584 61.1574 174.329C61.1574 173.075 60.1406 172.059 58.8863 172.059C57.632 172.059 56.6152 173.075 56.6152 174.329C56.6152 175.584 57.632 176.6 58.8863 176.6Z" fill="#FCB35E"/>
<path d="M92.3844 176.6C93.6387 176.6 94.6555 175.584 94.6555 174.329C94.6555 173.075 93.6387 172.059 92.3844 172.059C91.1301 172.059 90.1133 173.075 90.1133 174.329C90.1133 175.584 91.1301 176.6 92.3844 176.6Z" fill="white"/>
<path d="M125.883 176.6C127.138 176.6 128.154 175.584 128.154 174.329C128.154 173.075 127.138 172.059 125.883 172.059C124.629 172.059 123.612 173.075 123.612 174.329C123.612 175.584 124.629 176.6 125.883 176.6Z" fill="#FCB35E"/>
<path d="M159.192 176.6C160.446 176.6 161.463 175.584 161.463 174.329C161.463 173.075 160.446 172.059 159.192 172.059C157.938 172.059 156.921 173.075 156.921 174.329C156.921 175.584 157.938 176.6 159.192 176.6Z" fill="#FCB35E"/>
<path d="M192.691 176.6C193.945 176.6 194.962 175.584 194.962 174.329C194.962 173.075 193.945 172.059 192.691 172.059C191.437 172.059 190.42 173.075 190.42 174.329C190.42 175.584 191.437 176.6 192.691 176.6Z" fill="white"/>
<path d="M27.8478 196.842C27.8478 198.167 26.9016 199.113 25.5768 199.113C24.252 199.113 23.3057 198.167 23.3057 196.842C23.3057 195.517 24.252 194.571 25.5768 194.571C26.7123 194.571 27.8478 195.517 27.8478 196.842Z" fill="#FCB35E"/>
<path d="M58.8863 199.113C60.1406 199.113 61.1574 198.097 61.1574 196.842C61.1574 195.588 60.1406 194.571 58.8863 194.571C57.632 194.571 56.6152 195.588 56.6152 196.842C56.6152 198.097 57.632 199.113 58.8863 199.113Z" fill="#FCB35E"/>
<path d="M92.3844 199.113C93.6387 199.113 94.6555 198.097 94.6555 196.842C94.6555 195.588 93.6387 194.571 92.3844 194.571C91.1301 194.571 90.1133 195.588 90.1133 196.842C90.1133 198.097 91.1301 199.113 92.3844 199.113Z" fill="#FCB35E"/>
<path d="M125.883 199.113C127.138 199.113 128.154 198.097 128.154 196.842C128.154 195.588 127.138 194.571 125.883 194.571C124.629 194.571 123.612 195.588 123.612 196.842C123.612 198.097 124.629 199.113 125.883 199.113Z" fill="white"/>
<path d="M159.192 199.113C160.446 199.113 161.463 198.097 161.463 196.842C161.463 195.588 160.446 194.571 159.192 194.571C157.938 194.571 156.921 195.588 156.921 196.842C156.921 198.097 157.938 199.113 159.192 199.113Z" fill="#FCB35E"/>
<path d="M192.691 199.113C193.945 199.113 194.962 198.097 194.962 196.842C194.962 195.588 193.945 194.571 192.691 194.571C191.437 194.571 190.42 195.588 190.42 196.842C190.42 198.097 191.437 199.113 192.691 199.113Z" fill="#FCB35E"/>
<path d="M27.8478 219.355C27.8478 220.679 26.9016 221.626 25.5768 221.626C24.252 221.626 23.3057 220.679 23.3057 219.355C23.3057 218.03 24.252 217.083 25.5768 217.083C26.7123 216.894 27.8478 218.03 27.8478 219.355Z" fill="#FCB35E"/>
<path d="M58.8863 221.625C60.1406 221.625 61.1574 220.608 61.1574 219.354C61.1574 218.1 60.1406 217.083 58.8863 217.083C57.632 217.083 56.6152 218.1 56.6152 219.354C56.6152 220.608 57.632 221.625 58.8863 221.625Z" fill="white"/>
<path d="M92.3844 221.625C93.6387 221.625 94.6555 220.608 94.6555 219.354C94.6555 218.1 93.6387 217.083 92.3844 217.083C91.1301 217.083 90.1133 218.1 90.1133 219.354C90.1133 220.608 91.1301 221.625 92.3844 221.625Z" fill="#FCB35E"/>
<path d="M125.883 221.625C127.138 221.625 128.154 220.608 128.154 219.354C128.154 218.1 127.138 217.083 125.883 217.083C124.629 217.083 123.612 218.1 123.612 219.354C123.612 220.608 124.629 221.625 125.883 221.625Z" fill="#FCB35E"/>
<path d="M159.192 221.625C160.446 221.625 161.463 220.608 161.463 219.354C161.463 218.1 160.446 217.083 159.192 217.083C157.938 217.083 156.921 218.1 156.921 219.354C156.921 220.608 157.938 221.625 159.192 221.625Z" fill="#FCB35E"/>
<path d="M192.691 221.625C193.945 221.625 194.962 220.608 194.962 219.354C194.962 218.1 193.945 217.083 192.691 217.083C191.437 217.083 190.42 218.1 190.42 219.354C190.42 220.608 191.437 221.625 192.691 221.625Z" fill="#FCB35E"/>
<path d="M355.262 309.404C355.262 310.728 354.316 311.675 352.991 311.675C351.666 311.675 350.72 310.728 350.72 309.404C350.72 308.079 351.666 307.133 352.991 307.133C354.316 307.133 355.262 308.079 355.262 309.404Z" fill="#FCB35E"/>
<path d="M797.744 725.597C797.744 726.921 796.798 727.867 795.473 727.867C794.148 727.867 793.202 726.921 793.202 725.597C793.202 724.272 794.148 723.326 795.473 723.326C796.798 723.137 797.744 724.272 797.744 725.597Z" fill="#FCB35E"/>
<path d="M260.634 3.12311C260.634 4.44793 259.688 5.39424 258.363 5.39424C257.038 5.39424 256.092 4.44793 256.092 3.12311C256.092 1.79828 257.038 0.851974 258.363 0.851974C259.688 0.851974 260.634 1.98754 260.634 3.12311Z" fill="#FCB35E"/>
<path d="M1146.36 385.265C1147.61 385.265 1148.63 384.249 1148.63 382.994C1148.63 381.74 1147.61 380.723 1146.36 380.723C1145.1 380.723 1144.08 381.74 1144.08 382.994C1144.08 384.249 1145.1 385.265 1146.36 385.265Z" fill="#FCB35E"/>
<path d="M27.8478 241.677C27.8478 243.002 26.9016 243.948 25.5768 243.948C24.252 243.948 23.3057 243.002 23.3057 241.677C23.3057 240.353 24.252 239.407 25.5768 239.407C26.7123 239.407 27.8478 240.542 27.8478 241.677Z" fill="#FCB35E"/>
<path d="M58.8863 243.948C60.1406 243.948 61.1574 242.931 61.1574 241.677C61.1574 240.423 60.1406 239.407 58.8863 239.407C57.632 239.407 56.6152 240.423 56.6152 241.677C56.6152 242.931 57.632 243.948 58.8863 243.948Z" fill="#FCB35E"/>
<path d="M92.3844 243.948C93.6387 243.948 94.6555 242.931 94.6555 241.677C94.6555 240.423 93.6387 239.407 92.3844 239.407C91.1301 239.407 90.1133 240.423 90.1133 241.677C90.1133 242.931 91.1301 243.948 92.3844 243.948Z" fill="#FCB35E"/>
<path d="M125.883 243.948C127.138 243.948 128.154 242.931 128.154 241.677C128.154 240.423 127.138 239.407 125.883 239.407C124.629 239.407 123.612 240.423 123.612 241.677C123.612 242.931 124.629 243.948 125.883 243.948Z" fill="#FCB35E"/>
<path d="M159.192 243.948C160.446 243.948 161.463 242.931 161.463 241.677C161.463 240.423 160.446 239.407 159.192 239.407C157.938 239.407 156.921 240.423 156.921 241.677C156.921 242.931 157.938 243.948 159.192 243.948Z" fill="white"/>
<path d="M950.474 299.945C950.474 301.27 949.528 302.216 948.203 302.216C946.878 302.216 945.932 301.27 945.932 299.945C945.932 298.62 946.878 297.674 948.203 297.674C949.528 297.484 950.474 298.62 950.474 299.945Z" fill="white"/>
<path d="M192.691 243.948C193.945 243.948 194.962 242.931 194.962 241.677C194.962 240.423 193.945 239.407 192.691 239.407C191.437 239.407 190.42 240.423 190.42 241.677C190.42 242.931 191.437 243.948 192.691 243.948Z" fill="white"/>
<path d="M453.108 684.168C454.362 684.168 455.379 683.151 455.379 681.897C455.379 680.643 454.362 679.626 453.108 679.626C451.854 679.626 450.837 680.643 450.837 681.897C450.837 683.151 451.854 684.168 453.108 684.168Z" fill="white"/>
<path d="M719.013 527.717C720.268 527.717 721.284 526.7 721.284 525.446C721.284 524.192 720.268 523.175 719.013 523.175C717.759 523.175 716.742 524.192 716.742 525.446C716.742 526.7 717.759 527.717 719.013 527.717Z" fill="white"/>
<path d="M957.666 816.404C958.92 816.404 959.937 815.387 959.937 814.133C959.937 812.879 958.92 811.862 957.666 811.862C956.411 811.862 955.395 812.879 955.395 814.133C955.395 815.387 956.411 816.404 957.666 816.404Z" fill="white"/>
<path d="M602.999 104.145C602.999 105.469 602.053 106.416 600.728 106.416C599.403 106.416 598.457 105.469 598.457 104.145C598.457 102.82 599.403 101.874 600.728 101.874C602.053 101.874 602.999 102.82 602.999 104.145Z" fill="white"/>
</g>
</svg>
