<svg width="40" height="40" viewBox="0 0 40 40" fill="none" xmlns="http://www.w3.org/2000/svg">
<circle cx="20" cy="20" r="20" fill="url(#paint0_linear_134_2045)"/>
<path d="M21.825 18.6C23.0083 18.95 23.9667 19.5667 24.7 20.45C25.45 21.3167 25.825 22.3667 25.825 23.6C25.825 25.4 25.2167 26.8083 24 27.825C22.8 28.8417 21.325 29.35 19.575 29.35C18.2083 29.35 16.9833 29.0417 15.9 28.425C14.8333 27.7917 14.0583 26.8667 13.575 25.65L16.525 23.95C16.9583 25.3 17.975 25.975 19.575 25.975C20.4583 25.975 21.1417 25.7667 21.625 25.35C22.125 24.9167 22.375 24.3333 22.375 23.6C22.375 22.8833 22.125 22.3083 21.625 21.875C21.1417 21.4417 20.4583 21.225 19.575 21.225H18.825L17.5 19.225L20.95 14.725H14.1V11.5H25.1V14.35L21.825 18.6Z" fill="white"/>
<defs>
<linearGradient id="paint0_linear_134_2045" x1="31.144" y1="33.4324" x2="2.82154" y2="15.4401" gradientUnits="userSpaceOnUse">
<stop stop-color="#662DD8"/>
<stop offset="1" stop-color="#C8583F"/>
<stop offset="1" stop-color="#BF544D"/>
</linearGradient>
</defs>
</svg>
