<svg width="544" height="275" viewBox="0 0 544 275" fill="none" xmlns="http://www.w3.org/2000/svg">
<g filter="url(#filter0_dddddd_134_2030)">
<path fill-rule="evenodd" clip-rule="evenodd" d="M107.559 36.4788C124.475 30.6527 127.354 15.4761 125.194 1.52223C125.194 1.01874 125.626 0.659106 126.058 0.80296C142.254 8.71495 160.465 25.9775 160.465 51.8713C160.465 71.7232 145.061 89.2734 122.675 89.2734C114.687 89.6364 106.806 87.3308 100.275 82.7206C93.7436 78.1104 88.935 71.4581 86.6078 63.8137C84.2806 56.1693 84.5673 47.9682 87.4227 40.5047C90.278 33.0412 95.5394 26.7405 102.376 22.5969C102.808 22.3092 103.384 22.5969 103.384 23.1004C103.6 25.7617 104.32 32.4509 107.271 36.4788H107.559Z" fill="url(#paint0_linear_134_2030)"/>
<path fill-rule="evenodd" clip-rule="evenodd" d="M208.116 73.5213L209.34 72.0828L213.155 84.1665L212.651 84.67C209.772 87.3313 205.453 88.6979 199.91 88.6979H199.694C194.656 88.6979 190.697 87.2594 187.962 84.5981C185.226 81.8649 183.787 77.765 183.787 72.5863V39.6437H174.069V26.3373H183.787V10.2975H198.759V26.3373H210.636V39.6437H198.687V69.3496C198.687 70.7162 199.047 75.1037 203.222 75.1037C205.381 75.1037 207.396 74.3125 208.116 73.4494V73.5213ZM216.034 87.3313V26.4092H231.006V87.3313H216.034ZM223.448 1.52246C225.225 1.52252 226.961 2.04806 228.439 3.03284C229.917 4.01763 231.071 5.41759 231.754 7.05627C232.437 8.69495 232.619 10.499 232.278 12.2411C231.936 13.9831 231.087 15.5852 229.835 16.8455C228.584 18.1057 226.988 18.9676 225.247 19.3226C223.507 19.6776 221.7 19.5098 220.054 18.8403C218.409 18.1708 216.999 17.0296 216.002 15.5606C215.005 14.0915 214.465 12.3604 214.451 10.5853C214.451 5.69422 218.553 1.52246 223.448 1.52246ZM271.243 24.8987C284.2 24.8987 291.326 31.9476 291.326 44.8225V87.2594H276.354V48.4188C276.066 41.5138 272.755 38.3491 265.701 38.3491C259.367 38.3491 254.256 42.2331 251.665 45.5418V87.2594H236.693V26.4811H251.665V32.9545C255.983 28.7828 262.894 25.0426 271.243 25.0426V24.8987ZM341.137 32.7388V4.11183H356.109V87.4032H341.137V81.0737C338.846 83.4882 336.09 85.4147 333.034 86.7374C329.979 88.06 326.687 88.7513 323.357 88.7699C307.018 88.7699 296.077 75.9669 296.077 56.9062C296.077 37.7736 307.018 24.9706 323.357 24.9706C326.694 24.9859 329.993 25.6828 333.05 27.0187C336.108 28.3546 338.86 30.3011 341.137 32.7388ZM341.137 45.6137C339.468 43.4421 337.336 41.6697 334.895 40.4254C332.455 39.1812 329.767 38.4964 327.028 38.421C317.743 38.421 311.553 45.8295 311.553 56.9062C311.553 67.911 317.743 75.3195 327.028 75.3195C332.427 75.3195 338.329 72.4424 341.137 68.2707V45.6137ZM391.091 24.9706C408.799 24.9706 421.107 38.6368 421.107 58.057V62.1569H375.831C377.343 70.7162 384.109 76.1826 393.323 76.1826C399.153 76.1826 405.559 73.6652 409.23 69.9969L410.238 69.1338L417.364 79.3474L416.644 79.9948C409.9 85.9706 401.107 89.1141 392.099 88.7699C373.384 88.7699 360.212 75.6072 360.212 56.8343C360.066 52.6896 360.76 48.5582 362.252 44.6882C363.744 40.8182 366.003 37.2893 368.894 34.3134C371.785 31.3375 375.247 28.9759 379.074 27.3705C382.901 25.765 387.013 24.9487 391.163 24.9706H391.091ZM375.759 50.8643H406.495C405.631 41.7296 398.073 37.5579 391.091 37.5579C380.582 37.5579 376.623 45.4698 375.759 50.9363V50.8643ZM457.314 24.9706H458.393V40.0753L457.098 39.8595C456.018 39.6437 454.65 39.4999 453.283 39.4999C448.46 39.4999 441.766 42.8805 439.246 46.4768V87.2594H424.274V26.4092H439.318V33.1703C444.285 27.9916 450.835 24.9706 457.314 24.9706Z" fill="white"/>
</g>
<defs>
<filter id="filter0_dddddd_134_2030" x="0.0498047" y="0.770996" width="543.344" height="273.54" filterUnits="userSpaceOnUse" color-interpolation-filters="sRGB">
<feFlood flood-opacity="0" result="BackgroundImageFix"/>
<feColorMatrix in="SourceAlpha" type="matrix" values="0 0 0 0 0 0 0 0 0 0 0 0 0 0 0 0 0 0 127 0" result="hardAlpha"/>
<feOffset dy="2.76726"/>
<feGaussianBlur stdDeviation="1.17608"/>
<feColorMatrix type="matrix" values="0 0 0 0 0.00784314 0 0 0 0 0.0156863 0 0 0 0 0.176471 0 0 0 0.230539 0"/>
<feBlend mode="normal" in2="BackgroundImageFix" result="effect1_dropShadow_134_2030"/>
<feColorMatrix in="SourceAlpha" type="matrix" values="0 0 0 0 0 0 0 0 0 0 0 0 0 0 0 0 0 0 127 0" result="hardAlpha"/>
<feOffset dy="6.6501"/>
<feGaussianBlur stdDeviation="2.82629"/>
<feColorMatrix type="matrix" values="0 0 0 0 0.00784314 0 0 0 0 0.0156863 0 0 0 0 0.176471 0 0 0 0.331192 0"/>
<feBlend mode="normal" in2="effect1_dropShadow_134_2030" result="effect2_dropShadow_134_2030"/>
<feColorMatrix in="SourceAlpha" type="matrix" values="0 0 0 0 0 0 0 0 0 0 0 0 0 0 0 0 0 0 127 0" result="hardAlpha"/>
<feOffset dy="12.5216"/>
<feGaussianBlur stdDeviation="5.32166"/>
<feColorMatrix type="matrix" values="0 0 0 0 0.00784314 0 0 0 0 0.0156863 0 0 0 0 0.176471 0 0 0 0.41 0"/>
<feBlend mode="normal" in2="effect2_dropShadow_134_2030" result="effect3_dropShadow_134_2030"/>
<feColorMatrix in="SourceAlpha" type="matrix" values="0 0 0 0 0 0 0 0 0 0 0 0 0 0 0 0 0 0 127 0" result="hardAlpha"/>
<feOffset dy="22.3363"/>
<feGaussianBlur stdDeviation="9.49293"/>
<feColorMatrix type="matrix" values="0 0 0 0 0.00784314 0 0 0 0 0.0156863 0 0 0 0 0.176471 0 0 0 0.488808 0"/>
<feBlend mode="normal" in2="effect3_dropShadow_134_2030" result="effect4_dropShadow_134_2030"/>
<feColorMatrix in="SourceAlpha" type="matrix" values="0 0 0 0 0 0 0 0 0 0 0 0 0 0 0 0 0 0 127 0" result="hardAlpha"/>
<feOffset dy="41.7776"/>
<feGaussianBlur stdDeviation="17.7555"/>
<feColorMatrix type="matrix" values="0 0 0 0 0.00784314 0 0 0 0 0.0156863 0 0 0 0 0.176471 0 0 0 0.589461 0"/>
<feBlend mode="normal" in2="effect4_dropShadow_134_2030" result="effect5_dropShadow_134_2030"/>
<feColorMatrix in="SourceAlpha" type="matrix" values="0 0 0 0 0 0 0 0 0 0 0 0 0 0 0 0 0 0 127 0" result="hardAlpha"/>
<feOffset dy="100"/>
<feGaussianBlur stdDeviation="42.5"/>
<feColorMatrix type="matrix" values="0 0 0 0 0.00784314 0 0 0 0 0.0156863 0 0 0 0 0.176471 0 0 0 0.82 0"/>
<feBlend mode="normal" in2="effect5_dropShadow_134_2030" result="effect6_dropShadow_134_2030"/>
<feBlend mode="normal" in="SourceGraphic" in2="effect6_dropShadow_134_2030" result="shape"/>
</filter>
<linearGradient id="paint0_linear_134_2030" x1="160.465" y1="0.770996" x2="73.0529" y2="75.2258" gradientUnits="userSpaceOnUse">
<stop stop-color="#FF7854"/>
<stop offset="1" stop-color="#FD267D"/>
</linearGradient>
</defs>
</svg>
