<svg width="976" height="244" viewBox="0 0 976 244" fill="none" xmlns="http://www.w3.org/2000/svg">
<path d="M123.72 188.445C214.185 222.308 313.923 190.337 381.677 157.609C416.5 140.772 450.377 120.719 483.308 101.423C525.701 76.4513 569.798 50.5338 615.977 31.2375C661.02 12.5088 775.52 -24.9486 863.903 33.5077C914.624 67.1815 950.015 129.232 968.94 217.957C970.644 226.281 972.347 234.794 973.861 243.307H975.754C974.24 234.794 972.536 226.092 970.833 217.579C951.907 128.286 916.327 65.8572 865.039 31.9942C775.899 -27.0296 660.831 10.617 615.409 29.5349C569.041 48.8312 525.134 74.7487 482.551 99.7203C449.809 119.017 415.932 139.069 381.109 155.906C313.734 188.445 214.563 220.227 124.667 186.743C92.6822 174.824 63.3475 154.961 35.1482 135.853C23.4143 127.908 11.4911 119.773 -0.810547 112.206V114.476C11.1126 121.854 22.6573 129.611 34.0127 137.367C62.2119 156.663 91.5467 176.527 123.72 188.445Z" fill="white"/>
</svg>
